<svg width="211" height="256" viewBox="0 0 211 256" fill="none" xmlns="http://www.w3.org/2000/svg">
<g clip-path="url(#clip0_78_202)">
<path d="M210 0H2V208H210V0Z" fill="white"/>
<path d="M5.5 204V4H205.5V204H5.5ZM1.5 208H209.5V0H1.5V208Z" fill="#054189"/>
<path d="M11.5 198L199.5 198L199.5 10L11.5 10L11.5 198Z" fill="white"/>
<path d="M11.5 194.13V119.01H87.5L11.5 194.13Z" fill="#054189"/>
<path d="M11.5 89.9407V31.9707L70.15 89.9407H11.5Z" fill="#054189"/>
<path d="M121.5 83L195.35 10H121.5V83Z" fill="#054189"/>
<path d="M91.5194 67L33.8594 10H91.5194V67Z" fill="#054189"/>
<path d="M100.5 104H11.5V114H100.5V104Z" fill="#FC0100"/>
<path d="M105.5 103V10H95.5V103H105.5Z" fill="#FC0100"/>
<path d="M11.5 23.08V10H25.5L103.5 88L95.5 96L89.96 101.54L11.5 23.08Z" fill="#FC0100"/>
<path d="M11.5 198L105.5 104H199.5V198H11.5Z" fill="#D52B1E"/>
<path d="M105.5 104L136.83 72.67L199.5 10V104H105.5Z" fill="white"/>
<path d="M74.1699 135.33L105.5 104L136.83 72.6699H199.5V135.33H74.1699Z" fill="#0039A6"/>
<path d="M11.5 198V192.34L193.84 10H199.5V15.66L17.16 198H11.5Z" fill="white"/>
<path d="M107.959 188L98.2491 153.89C95.2691 156.48 91.4691 157.75 88.2691 158.82L88.0191 158.9C84.4691 160.09 82.0991 161.74 81.1591 163.7C80.8591 164.32 80.7291 164.93 80.6791 165.47C85.5591 166.48 95.1491 169.18 100.739 175.55L101.729 176.68V188H64.5391L54.6691 153.72L57.5991 152.22C61.7791 150.08 64.9891 146.29 66.4091 141.82C67.1991 139.24 67.8291 136.62 68.2691 133.97C60.6691 132.05 55.2991 125.1 55.4091 117.21C55.3691 113.24 56.8191 109.32 59.4891 106.26C61.3291 104.11 63.7991 102.56 66.5091 101.79V101.49L69.0091 101.32C69.2791 101.29 69.5491 101.28 69.8091 101.27L70.2591 101.24C72.8391 101.08 75.2591 99.8298 76.8791 97.8198C78.7691 95.4898 79.8091 92.5798 79.8091 89.5998C79.8091 88.0498 77.4591 77.1898 67.9791 77.1898C65.6991 77.1898 62.0791 79.5198 62.0791 81.4498C62.0791 89.0698 55.8691 95.2698 48.2491 95.2698C48.0491 95.2698 47.8591 95.2698 47.6691 95.2598C43.5691 95.2298 34.2891 93.2798 34.2891 76.2998V63.7998L41.5491 73.9798C42.5991 75.4498 44.2291 76.3598 46.0291 76.4798C47.6691 76.4098 49.5291 74.4398 51.6691 72.1598C55.0991 68.5098 59.7891 63.5098 67.4691 63.5098C75.1491 63.5098 80.8491 66.5798 85.1391 70.8198C83.3491 65.1998 82.1491 60.3398 81.9491 54.5998C81.6991 46.5298 83.7491 38.5998 87.8491 31.6598C91.9291 24.6798 99.1991 20.3298 107.299 20.0298C107.639 20.0198 107.969 20.0098 108.309 20.0098C113.239 20.0098 118.099 21.3198 122.359 23.8098L121.639 26.0298C127.789 26.6798 129.979 28.1998 131.169 29.5598C131.959 30.4598 135.439 31.4198 140.339 31.4198H144.509V38.7898C144.779 39.5198 144.909 40.3498 144.909 41.2898C144.909 43.1098 144.049 44.9898 142.339 46.9098L143.139 46.5898L140.489 59.6898C144.219 59.3798 147.769 57.9198 150.639 55.4798C153.149 53.0698 155.169 50.2498 156.649 47.0998C158.459 43.2498 162.219 40.6398 166.459 40.2998H166.619L177.399 40.2898L175.289 52.9498L174.269 59.1398L172.329 70.8498L162.549 70.8798C160.339 70.9798 159.719 71.9198 158.069 75.7998C156.019 80.6098 152.939 87.8298 140.679 88.3198C141.299 89.6398 142.619 90.5198 144.139 90.5198H144.449C144.449 90.5198 144.839 90.5198 144.959 90.5198C147.289 90.5198 149.579 89.7498 151.429 88.3298C153.729 85.6398 157.049 84.0698 160.609 84.0098H170.169L168.239 95.7098L168.109 96.4698L166.169 108.19L165.159 114.29H155.119L154.269 113.86C151.339 112.37 148.049 111.52 144.769 111.39C140.899 111.52 137.089 112.24 133.439 113.53L132.779 113.76H132.489L127.769 115.6C126.369 116.15 124.999 116.76 123.679 117.43C125.889 118.61 129.009 120.51 132.119 123.16C139.879 129.77 143.989 137.95 143.989 146.8V149.41L141.599 150.46C137.409 152.31 127.339 158.27 124.959 165.75C130.149 166.98 139.069 169.83 144.009 175.58L144.979 176.7V188H107.959ZM103.309 142.47C103.099 146.79 101.799 149.88 99.9191 152.16L102.369 151.81C108.579 150.93 110.109 149.14 110.159 148.59C110.259 147.38 107.929 144.31 103.309 142.47ZM70.5591 116.88C70.4791 116.91 70.4191 116.95 70.3691 117.02C70.2991 117.11 70.2691 117.22 70.2791 117.33C70.2991 117.51 70.4291 117.66 70.6091 117.7L70.8991 117.77L72.7591 117.63C74.1291 117.53 76.1091 116.73 78.2891 115.29C75.8491 116.27 73.2391 116.82 70.5691 116.89L70.5591 116.88ZM129.079 48.4498C128.879 48.7898 128.829 49.2098 128.959 49.5898L128.999 49.7198L129.039 49.8498C129.159 50.3398 129.599 50.6798 130.099 50.6798C130.149 50.6798 130.199 50.6798 130.259 50.6698L130.449 50.6398H130.639C131.679 50.5898 132.699 50.4498 133.709 50.2098L133.609 47.1398C130.979 47.2998 129.509 47.9598 129.089 48.4398L129.079 48.4498Z" fill="white"/>
<path d="M93.8288 84.3192C89.3988 70.3692 86.2688 63.7292 85.9588 54.4492C85.7388 47.1592 87.5888 39.9592 91.3088 33.6792C94.6788 27.8992 100.779 24.2492 107.469 24.0092C111.989 23.8492 116.459 24.9692 120.359 27.2492C118.199 27.0492 116.039 26.9492 113.869 26.9792C109.309 26.9792 104.889 27.2592 104.839 27.2592L104.319 27.2992V36.6592C101.269 38.0092 88.6688 49.8192 101.709 84.3292H93.8388L93.8288 84.3192ZM105.699 84.3192C96.7488 63.1992 99.2288 47.0392 105.159 40.5092C106.719 42.3392 108.899 43.5192 111.289 43.8092C109.509 47.9492 108.629 52.4092 108.679 56.9192C108.729 61.6692 109.839 66.3492 111.949 70.6092C114.679 75.9392 118.529 80.6092 123.229 84.3192H105.699ZM129.219 84.3192C123.409 80.6792 118.729 75.4892 115.699 69.3392C112.679 63.1792 111.819 56.1792 113.249 49.4692C113.809 52.9392 115.329 56.1892 117.639 58.8392C119.979 61.1392 123.889 62.2592 129.589 62.2592C131.589 62.1392 133.529 62.9492 134.849 64.4492C138.209 68.3792 137.359 76.7092 136.849 81.6792C136.739 82.7392 136.659 83.6392 136.609 84.3292H129.219V84.3192ZM136.289 60.3892C134.999 59.3092 131.829 57.7392 124.239 57.7392C118.979 57.7392 117.429 51.6792 116.179 46.8092C115.269 43.2492 114.489 40.1692 112.359 40.1692C107.279 40.1692 107.189 36.2792 107.189 36.1092V29.9392C108.319 29.8692 111.189 29.6892 114.449 29.6892C121.889 29.6892 126.769 30.5692 128.169 32.1792C130.719 35.0992 137.539 35.4092 140.349 35.4092H140.519V37.2492C140.429 37.3292 140.329 37.3892 140.219 37.4392C139.729 37.6292 139.389 38.0792 139.339 38.6092C139.359 39.0392 139.659 39.4092 140.079 39.5192C140.479 39.6892 140.919 39.8792 140.919 41.2892C140.919 42.8292 138.959 44.8092 137.549 45.9892C137.529 45.2892 137.289 44.6192 136.879 44.0492C136.459 43.4692 135.789 43.1292 135.079 43.1092H134.779C132.249 43.1092 127.709 43.4992 125.789 46.1492C124.859 47.5292 124.619 49.2692 125.149 50.8492C125.799 53.3592 128.219 54.9892 130.789 54.6292C133.179 54.5292 135.539 54.0092 137.749 53.1092L136.279 60.3992L136.289 60.3892ZM118.879 33.5092C119.359 34.3292 121.019 37.0292 122.339 37.1992C122.539 37.2292 122.749 37.2392 122.959 37.2392C124.179 37.1992 125.369 36.8792 126.449 36.3292L126.979 36.0492L126.669 35.5092C126.159 34.5892 125.419 33.8192 124.519 33.2692C122.829 32.9192 121.109 32.6992 119.379 32.6292L118.319 32.5592L118.879 33.5092ZM69.7188 130.189C63.6388 128.889 59.3188 123.469 59.4088 117.249C59.3788 114.169 60.4788 111.189 62.4988 108.869C64.3788 106.679 67.0788 105.369 69.9688 105.249L70.5088 105.229V105.209C74.2188 104.979 77.6688 103.199 79.9988 100.309C82.4688 97.2792 83.8188 93.4892 83.8088 89.5692C83.8088 86.0192 80.0588 73.1692 67.9788 73.1692C64.0288 73.1692 58.0788 76.6992 58.0788 81.4292C58.0788 86.8592 53.6688 91.2492 48.2388 91.2492C48.0788 91.2492 47.9288 91.2492 47.7688 91.2392C42.1688 91.2392 38.2988 86.8392 38.2988 76.2792C40.0788 78.7692 42.8988 80.3092 45.9588 80.4592C53.4388 80.4592 56.6088 67.4792 67.4788 67.4792C82.7988 67.4792 89.7588 82.4292 89.7588 89.5692C89.8188 95.2792 88.0288 100.849 84.6788 105.459C81.2888 110.059 75.9288 112.799 70.2088 112.849C67.7788 113.119 66.0388 115.309 66.3088 117.739C66.5188 119.609 67.8888 121.139 69.7188 121.559V130.159V130.189ZM139.989 84.3192C140.419 81.3392 141.829 69.6892 138.849 63.7392C144.159 63.7892 149.319 61.9092 153.349 58.4392C156.239 55.6792 158.599 52.4092 160.289 48.7892C161.489 46.2292 163.969 44.5092 166.799 44.2792H172.699L172.079 47.9892H166.389L165.979 50.4592H171.669L171.059 54.1692H165.369L164.909 56.9292H170.599L169.989 60.6492H164.299L163.889 63.1192H169.579L168.959 66.8392L162.479 66.8592C157.459 67.0492 155.969 70.5292 154.409 74.2092C152.429 78.8492 150.199 84.0992 139.999 84.3092M156.089 110.289C152.579 108.509 148.729 107.519 144.789 107.379C140.459 107.509 136.189 108.309 132.109 109.749C123.839 109.689 111.809 99.2492 107.099 87.9892H136.439C137.099 91.8692 140.539 94.6592 144.479 94.4992C148.039 94.6192 151.519 93.4392 154.269 91.1892C155.819 89.2092 158.179 88.0392 160.699 87.9992H165.479L164.869 91.6992H159.179L158.779 94.0792H164.469L163.859 97.7892H158.169L157.729 100.459H163.419L162.809 104.179H157.119L156.719 106.559H162.409L161.799 110.279H156.109L156.089 110.289ZM94.6288 183.999L92.9388 178.189H89.8088L91.4988 183.999H87.1988L85.5088 178.189H82.3688L84.0588 183.999H79.4688L77.7788 178.189H74.6388L76.3288 183.999H67.5388L59.4188 155.779C64.5688 153.139 68.4588 148.549 70.2188 143.029C72.3588 136.099 73.3088 128.859 73.0388 121.609C77.2288 121.299 82.9688 117.639 87.5088 112.299C93.2888 105.499 94.5788 96.8892 94.7088 87.9892H103.319C105.489 93.0992 108.359 97.8792 111.849 102.189C115.699 106.669 120.689 110.019 126.299 111.869C119.929 114.359 114.149 118.149 109.329 122.999C102.979 129.249 99.3288 135.889 99.3288 141.229C99.3288 151.029 93.1988 152.949 86.7388 155.109C73.3188 159.599 77.1688 168.919 77.1688 168.919C77.1688 168.919 91.0888 170.619 97.7188 178.179V183.989H94.6188L94.6288 183.999ZM137.849 183.999L136.159 178.189H133.019L134.709 183.999H130.409L128.719 178.189H125.589L127.279 183.999H122.689L120.999 178.189H117.859L119.549 183.999H110.979L102.939 155.779C121.149 153.209 114.179 141.719 103.329 138.229C106.629 130.609 112.099 124.139 119.069 119.639C119.069 119.639 139.989 128.099 139.989 146.809C139.989 146.809 120.439 155.379 120.439 168.929C120.439 168.929 134.889 171.129 140.969 178.189V183.999H137.839H137.849Z" fill="#435363"/>
</g>
<path d="M3.23688 250.781H5.89313L5.90875 229.312H3.23688V228.094H15.0181C17.466 228.094 19.2838 228.656 20.4713 229.781C21.6692 230.896 22.2681 232.333 22.2681 234.094C22.2681 236.146 21.3202 237.661 19.4244 238.641C18.8619 238.932 18.2681 239.161 17.6431 239.328C19.6535 239.568 21.19 240.214 22.2525 241.266C23.315 242.318 23.8463 243.609 23.8463 245.141C23.8463 247.245 23.0754 248.917 21.5338 250.156C20.0025 251.385 17.8098 252 14.9556 252H3.23688V250.781ZM13.94 239C16.2004 239 17.5494 238.031 17.9869 236.094C18.1223 235.51 18.19 234.885 18.19 234.219C18.19 232.635 17.9348 231.49 17.4244 230.781C16.7369 229.802 15.4348 229.312 13.5181 229.312H10.1119V239H13.94ZM13.7369 250.781C15.6327 250.781 17.0806 250.328 18.0806 249.422C19.091 248.516 19.5963 247.229 19.5963 245.562C19.5963 243.115 18.6223 241.479 16.6744 240.656C15.966 240.354 15.1015 240.203 14.0806 240.203H10.1119V250.781H13.7369ZM37.9863 228.094C43.9758 228.094 46.9706 230.104 46.9706 234.125C46.9706 235.948 46.4185 237.401 45.3144 238.484C44.2102 239.568 42.731 240.26 40.8769 240.562C43.3248 240.969 45.0019 242.229 45.9081 244.344C46.2727 245.198 46.5904 246.141 46.8613 247.172C47.1425 248.193 47.3925 248.917 47.6113 249.344C48.0904 250.302 48.7988 250.781 49.7363 250.781H50.3613L50.3925 252.078H48.1894C46.1477 252.078 44.7727 251.802 44.0644 251.25C43.3456 250.688 42.7988 249.578 42.4238 247.922C42.08 246.411 41.7988 245.38 41.58 244.828C41.1217 243.641 40.5279 242.708 39.7988 242.031C39.0696 241.354 38.1269 241.016 36.9706 241.016H34.1113V250.781H37.7675V252H27.3769V250.781H29.8925L29.9081 229.312H27.3769V228.094H37.9863ZM37.705 239.938C39.6008 239.938 40.9342 239.328 41.705 238.109C42.2675 237.224 42.5488 235.969 42.5488 234.344C42.5488 232.719 42.2206 231.521 41.5644 230.75C40.7519 229.792 39.3717 229.312 37.4238 229.312H34.1113V239.938H37.705ZM52.2825 250.781H55.3606L55.3763 229.312H52.2825V228.094H62.6575V229.312H59.5794V250.781H62.6575V252H52.2825V250.781ZM71.5475 250.781H74.6569L74.6725 229.297H71.7663C70.0475 229.411 68.8496 230.047 68.1725 231.203C67.6517 232.089 67.3444 233.557 67.2506 235.609H66.0319V228.094H87.5006V235.609H86.2819C86.1881 233.578 85.8756 232.109 85.3444 231.203C84.6673 230.047 83.4746 229.411 81.7663 229.297H78.8756V250.781H82.0006V252H71.5475V250.781ZM89.75 250.781H91.4375L100.25 228.094H102.062L111.484 250.781H113.078V252H104.562V250.781H106.906L104.656 245.328H95.1719L93.1094 250.781H95.9219V252H89.75V250.781ZM104.156 244.109L99.7188 233.312L95.6406 244.109H104.156ZM115.484 250.781H118.202V229.312H115.484V228.094H122.562L135.218 246.922V229.312H132.187V228.094H139.609V229.312H136.749V252H133.843L119.734 231.266V250.781H122.906V252H115.484V250.781ZM142.842 250.781H145.921L145.936 229.312H142.842V228.094H153.217V229.312H150.139V250.781H153.217V252H142.842V250.781ZM157.545 250.781H160.514L160.529 229.312H157.545V228.094H167.936V229.312H164.732V240.203L175.701 229.312H173.373V228.094H180.357V229.312H177.623L169.061 237.812L179.654 250.781H181.873V252H172.029V250.781H174.326L166.279 240.562L164.732 242.094V250.781H167.936V252H157.545V250.781ZM185.529 246.078C185.091 245.161 184.758 244.193 184.529 243.172C184.31 242.141 184.201 241.104 184.201 240.062C184.201 239.01 184.31 237.984 184.529 236.984C184.758 235.974 185.091 235.016 185.529 234.109C186.445 232.203 187.794 230.672 189.576 229.516C191.367 228.359 193.518 227.781 196.029 227.781C199.841 227.781 202.826 229.052 204.982 231.594C206.909 233.885 207.872 236.719 207.872 240.094C207.872 243.469 206.899 246.302 204.951 248.594C203.617 250.156 201.862 251.24 199.685 251.844C198.581 252.156 197.367 252.312 196.044 252.312C194.732 252.312 193.529 252.161 192.435 251.859C191.341 251.547 190.357 251.115 189.482 250.562C188.607 250.01 187.836 249.354 187.169 248.594C186.513 247.823 185.966 246.984 185.529 246.078ZM201.669 247.375C202.065 246.656 202.445 245.693 202.81 244.484C203.185 243.276 203.372 242.01 203.372 240.688C203.372 239.354 203.31 238.245 203.185 237.359C203.07 236.464 202.888 235.615 202.638 234.812C202.086 233.083 201.258 231.698 200.154 230.656C199.06 229.604 197.685 229.078 196.029 229.078C193.445 229.078 191.524 230.234 190.263 232.547C189.19 234.536 188.669 237.01 188.701 239.969C188.742 242.917 189.284 245.385 190.326 247.375C191.617 249.802 193.497 251.016 195.966 251.016C198.435 251.016 200.336 249.802 201.669 247.375Z" fill="black"/>
<defs>
<clipPath id="clip0_78_202">
<rect width="208" height="208" fill="white" transform="translate(1.5)"/>
</clipPath>
</defs>
</svg>
