<svg width="1139" height="210" viewBox="0 0 1139 210" fill="none" xmlns="http://www.w3.org/2000/svg">
<path d="M208.5 2H0.5V210H208.5V2Z" fill="white"/>
<path d="M4 206V6H204V206H4ZM0 210H208V2H0V210Z" fill="#054189"/>
<path d="M10 200L198 200L198 12L10 12L10 200Z" fill="white"/>
<path d="M10 196.13V121.01H86L10 196.13Z" fill="#054189"/>
<path d="M10 91.9407V33.9707L68.65 91.9407H10Z" fill="#054189"/>
<path d="M120 85L193.85 12H120V85Z" fill="#054189"/>
<path d="M90.0194 69L32.3594 12H90.0194V69Z" fill="#054189"/>
<path d="M99 106H10V116H99V106Z" fill="#FC0100"/>
<path d="M104 105V12H94V105H104Z" fill="#FC0100"/>
<path d="M10 25.08V12H24L102 90L94 98L88.46 103.54L10 25.08Z" fill="#FC0100"/>
<path d="M10 200L104 106H198V200H10Z" fill="#D52B1E"/>
<path d="M104 106L135.33 74.67L198 12V106H104Z" fill="white"/>
<path d="M72.6699 137.33L104 106L135.33 74.6699H198V137.33H72.6699Z" fill="#0039A6"/>
<path d="M10 200V194.34L192.34 12H198V17.66L15.66 200H10Z" fill="white"/>
<path d="M106.459 190L96.7491 155.89C93.7691 158.48 89.9691 159.75 86.7691 160.82L86.5191 160.9C82.9691 162.09 80.5991 163.74 79.6591 165.7C79.3591 166.32 79.2291 166.93 79.1791 167.47C84.0591 168.48 93.6491 171.18 99.2391 177.55L100.229 178.68V190H63.0391L53.1691 155.72L56.0991 154.22C60.2791 152.08 63.4891 148.29 64.9091 143.82C65.6991 141.24 66.3291 138.62 66.7691 135.97C59.1691 134.05 53.7991 127.1 53.9091 119.21C53.8691 115.24 55.3191 111.32 57.9891 108.26C59.8291 106.11 62.2991 104.56 65.0091 103.79V103.49L67.5091 103.32C67.7791 103.29 68.0491 103.28 68.3091 103.27L68.7591 103.24C71.3391 103.08 73.7591 101.83 75.3791 99.8198C77.2691 97.4898 78.3091 94.5798 78.3091 91.5998C78.3091 90.0498 75.9591 79.1898 66.4791 79.1898C64.1991 79.1898 60.5791 81.5198 60.5791 83.4498C60.5791 91.0698 54.3691 97.2698 46.7491 97.2698C46.5491 97.2698 46.3591 97.2698 46.1691 97.2598C42.0691 97.2298 32.7891 95.2798 32.7891 78.2998V65.7998L40.0491 75.9798C41.0991 77.4498 42.7291 78.3598 44.5291 78.4798C46.1691 78.4098 48.0291 76.4398 50.1691 74.1598C53.5991 70.5098 58.2891 65.5098 65.9691 65.5098C73.6491 65.5098 79.3491 68.5798 83.6391 72.8198C81.8491 67.1998 80.6491 62.3398 80.4491 56.5998C80.1991 48.5298 82.2491 40.5998 86.3491 33.6598C90.4291 26.6798 97.6991 22.3298 105.799 22.0298C106.139 22.0198 106.469 22.0098 106.809 22.0098C111.739 22.0098 116.599 23.3198 120.859 25.8098L120.139 28.0298C126.289 28.6798 128.479 30.1998 129.669 31.5598C130.459 32.4598 133.939 33.4198 138.839 33.4198H143.009V40.7898C143.279 41.5198 143.409 42.3498 143.409 43.2898C143.409 45.1098 142.549 46.9898 140.839 48.9098L141.639 48.5898L138.989 61.6898C142.719 61.3798 146.269 59.9198 149.139 57.4798C151.649 55.0698 153.669 52.2498 155.149 49.0998C156.959 45.2498 160.719 42.6398 164.959 42.2998H165.119L175.899 42.2898L173.789 54.9498L172.769 61.1398L170.829 72.8498L161.049 72.8798C158.839 72.9798 158.219 73.9198 156.569 77.7998C154.519 82.6098 151.439 89.8298 139.179 90.3198C139.799 91.6398 141.119 92.5198 142.639 92.5198H142.949C142.949 92.5198 143.339 92.5198 143.459 92.5198C145.789 92.5198 148.079 91.7498 149.929 90.3298C152.229 87.6398 155.549 86.0698 159.109 86.0098H168.669L166.739 97.7098L166.609 98.4698L164.669 110.19L163.659 116.29H153.619L152.769 115.86C149.839 114.37 146.549 113.52 143.269 113.39C139.399 113.52 135.589 114.24 131.939 115.53L131.279 115.76H130.989L126.269 117.6C124.869 118.15 123.499 118.76 122.179 119.43C124.389 120.61 127.509 122.51 130.619 125.16C138.379 131.77 142.489 139.95 142.489 148.8V151.41L140.099 152.46C135.909 154.31 125.839 160.27 123.459 167.75C128.649 168.98 137.569 171.83 142.509 177.58L143.479 178.7V190H106.459ZM101.809 144.47C101.599 148.79 100.299 151.88 98.4191 154.16L100.869 153.81C107.079 152.93 108.609 151.14 108.659 150.59C108.759 149.38 106.429 146.31 101.809 144.47ZM69.0591 118.88C68.9791 118.91 68.9191 118.95 68.8691 119.02C68.7991 119.11 68.7691 119.22 68.7791 119.33C68.7991 119.51 68.9291 119.66 69.1091 119.7L69.3991 119.77L71.2591 119.63C72.6291 119.53 74.6091 118.73 76.7891 117.29C74.3491 118.27 71.7391 118.82 69.0691 118.89L69.0591 118.88ZM127.579 50.4498C127.379 50.7898 127.329 51.2098 127.459 51.5898L127.499 51.7198L127.539 51.8498C127.659 52.3398 128.099 52.6798 128.599 52.6798C128.649 52.6798 128.699 52.6798 128.759 52.6698L128.949 52.6398H129.139C130.179 52.5898 131.199 52.4498 132.209 52.2098L132.109 49.1398C129.479 49.2998 128.009 49.9598 127.589 50.4398L127.579 50.4498Z" fill="white"/>
<path d="M92.3288 86.3192C87.8988 72.3692 84.7688 65.7292 84.4588 56.4492C84.2388 49.1592 86.0888 41.9592 89.8088 35.6792C93.1788 29.8992 99.2788 26.2492 105.969 26.0092C110.489 25.8492 114.959 26.9692 118.859 29.2492C116.699 29.0492 114.539 28.9492 112.369 28.9792C107.809 28.9792 103.389 29.2592 103.339 29.2592L102.819 29.2992V38.6592C99.7688 40.0092 87.1688 51.8192 100.209 86.3292H92.3388L92.3288 86.3192ZM104.199 86.3192C95.2488 65.1992 97.7288 49.0392 103.659 42.5092C105.219 44.3392 107.399 45.5192 109.789 45.8092C108.009 49.9492 107.129 54.4092 107.179 58.9192C107.229 63.6692 108.339 68.3492 110.449 72.6092C113.179 77.9392 117.029 82.6092 121.729 86.3192H104.199ZM127.719 86.3192C121.909 82.6792 117.229 77.4892 114.199 71.3392C111.179 65.1792 110.319 58.1792 111.749 51.4692C112.309 54.9392 113.829 58.1892 116.139 60.8392C118.479 63.1392 122.389 64.2592 128.089 64.2592C130.089 64.1392 132.029 64.9492 133.349 66.4492C136.709 70.3792 135.859 78.7092 135.349 83.6792C135.239 84.7392 135.159 85.6392 135.109 86.3292H127.719V86.3192ZM134.789 62.3892C133.499 61.3092 130.329 59.7392 122.739 59.7392C117.479 59.7392 115.929 53.6792 114.679 48.8092C113.769 45.2492 112.989 42.1692 110.859 42.1692C105.779 42.1692 105.689 38.2792 105.689 38.1092V31.9392C106.819 31.8692 109.689 31.6892 112.949 31.6892C120.389 31.6892 125.269 32.5692 126.669 34.1792C129.219 37.0992 136.039 37.4092 138.849 37.4092H139.019V39.2492C138.929 39.3292 138.829 39.3892 138.719 39.4392C138.229 39.6292 137.889 40.0792 137.839 40.6092C137.859 41.0392 138.159 41.4092 138.579 41.5192C138.979 41.6892 139.419 41.8792 139.419 43.2892C139.419 44.8292 137.459 46.8092 136.049 47.9892C136.029 47.2892 135.789 46.6192 135.379 46.0492C134.959 45.4692 134.289 45.1292 133.579 45.1092H133.279C130.749 45.1092 126.209 45.4992 124.289 48.1492C123.359 49.5292 123.119 51.2692 123.649 52.8492C124.299 55.3592 126.719 56.9892 129.289 56.6292C131.679 56.5292 134.039 56.0092 136.249 55.1092L134.779 62.3992L134.789 62.3892ZM117.379 35.5092C117.859 36.3292 119.519 39.0292 120.839 39.1992C121.039 39.2292 121.249 39.2392 121.459 39.2392C122.679 39.1992 123.869 38.8792 124.949 38.3292L125.479 38.0492L125.169 37.5092C124.659 36.5892 123.919 35.8192 123.019 35.2692C121.329 34.9192 119.609 34.6992 117.879 34.6292L116.819 34.5592L117.379 35.5092ZM68.2188 132.189C62.1388 130.889 57.8188 125.469 57.9088 119.249C57.8788 116.169 58.9788 113.189 60.9988 110.869C62.8788 108.679 65.5788 107.369 68.4688 107.249L69.0088 107.229V107.209C72.7188 106.979 76.1688 105.199 78.4988 102.309C80.9688 99.2792 82.3188 95.4892 82.3088 91.5692C82.3088 88.0192 78.5588 75.1692 66.4788 75.1692C62.5288 75.1692 56.5788 78.6992 56.5788 83.4292C56.5788 88.8592 52.1688 93.2492 46.7388 93.2492C46.5788 93.2492 46.4288 93.2492 46.2688 93.2392C40.6688 93.2392 36.7988 88.8392 36.7988 78.2792C38.5788 80.7692 41.3988 82.3092 44.4588 82.4592C51.9388 82.4592 55.1088 69.4792 65.9788 69.4792C81.2988 69.4792 88.2588 84.4292 88.2588 91.5692C88.3188 97.2792 86.5288 102.849 83.1788 107.459C79.7888 112.059 74.4288 114.799 68.7088 114.849C66.2788 115.119 64.5388 117.309 64.8088 119.739C65.0188 121.609 66.3888 123.139 68.2188 123.559V132.159V132.189ZM138.489 86.3192C138.919 83.3392 140.329 71.6892 137.349 65.7392C142.659 65.7892 147.819 63.9092 151.849 60.4392C154.739 57.6792 157.099 54.4092 158.789 50.7892C159.989 48.2292 162.469 46.5092 165.299 46.2792H171.199L170.579 49.9892H164.889L164.479 52.4592H170.169L169.559 56.1692H163.869L163.409 58.9292H169.099L168.489 62.6492H162.799L162.389 65.1192H168.079L167.459 68.8392L160.979 68.8592C155.959 69.0492 154.469 72.5292 152.909 76.2092C150.929 80.8492 148.699 86.0992 138.499 86.3092M154.589 112.289C151.079 110.509 147.229 109.519 143.289 109.379C138.959 109.509 134.689 110.309 130.609 111.749C122.339 111.689 110.309 101.249 105.599 89.9892H134.939C135.599 93.8692 139.039 96.6592 142.979 96.4992C146.539 96.6192 150.019 95.4392 152.769 93.1892C154.319 91.2092 156.679 90.0392 159.199 89.9992H163.979L163.369 93.6992H157.679L157.279 96.0792H162.969L162.359 99.7892H156.669L156.229 102.459H161.919L161.309 106.179H155.619L155.219 108.559H160.909L160.299 112.279H154.609L154.589 112.289ZM93.1288 185.999L91.4388 180.189H88.3088L89.9988 185.999H85.6988L84.0088 180.189H80.8688L82.5588 185.999H77.9688L76.2788 180.189H73.1388L74.8288 185.999H66.0388L57.9188 157.779C63.0688 155.139 66.9588 150.549 68.7188 145.029C70.8588 138.099 71.8088 130.859 71.5388 123.609C75.7288 123.299 81.4688 119.639 86.0088 114.299C91.7888 107.499 93.0788 98.8892 93.2088 89.9892H101.819C103.989 95.0992 106.859 99.8792 110.349 104.189C114.199 108.669 119.189 112.019 124.799 113.869C118.429 116.359 112.649 120.149 107.829 124.999C101.479 131.249 97.8288 137.889 97.8288 143.229C97.8288 153.029 91.6988 154.949 85.2388 157.109C71.8188 161.599 75.6688 170.919 75.6688 170.919C75.6688 170.919 89.5888 172.619 96.2188 180.179V185.989H93.1188L93.1288 185.999ZM136.349 185.999L134.659 180.189H131.519L133.209 185.999H128.909L127.219 180.189H124.089L125.779 185.999H121.189L119.499 180.189H116.359L118.049 185.999H109.479L101.439 157.779C119.649 155.209 112.679 143.719 101.829 140.229C105.129 132.609 110.599 126.139 117.569 121.639C117.569 121.639 138.489 130.099 138.489 148.809C138.489 148.809 118.939 157.379 118.939 170.929C118.939 170.929 133.389 173.129 139.469 180.189V185.999H136.339H136.349Z" fill="#435363"/>
<path d="M251.142 28V6.18182H258.514C260.226 6.18182 261.625 6.49077 262.712 7.10866C263.805 7.71946 264.615 8.54688 265.141 9.59091C265.666 10.6349 265.929 11.7997 265.929 13.0852C265.929 14.3707 265.666 15.5391 265.141 16.5902C264.622 17.6413 263.82 18.4794 262.733 19.1044C261.646 19.7223 260.254 20.0312 258.557 20.0312H253.273V17.6875H258.472C259.643 17.6875 260.585 17.4851 261.295 17.0803C262.005 16.6754 262.52 16.1286 262.839 15.4396C263.166 14.7436 263.33 13.9588 263.33 13.0852C263.33 12.2116 263.166 11.4304 262.839 10.7415C262.52 10.0526 262.001 9.51278 261.284 9.12216C260.567 8.72443 259.615 8.52557 258.429 8.52557H253.784V28H251.142ZM289.794 17.0909C289.794 19.392 289.379 21.3807 288.548 23.0568C287.717 24.733 286.577 26.0256 285.128 26.9347C283.679 27.8438 282.024 28.2983 280.163 28.2983C278.303 28.2983 276.648 27.8438 275.199 26.9347C273.75 26.0256 272.61 24.733 271.779 23.0568C270.948 21.3807 270.533 19.392 270.533 17.0909C270.533 14.7898 270.948 12.8011 271.779 11.125C272.61 9.44886 273.75 8.15625 275.199 7.24716C276.648 6.33807 278.303 5.88352 280.163 5.88352C282.024 5.88352 283.679 6.33807 285.128 7.24716C286.577 8.15625 287.717 9.44886 288.548 11.125C289.379 12.8011 289.794 14.7898 289.794 17.0909ZM287.237 17.0909C287.237 15.2017 286.921 13.6072 286.289 12.3075C285.664 11.0078 284.815 10.0241 283.743 9.35653C282.678 8.68892 281.484 8.35511 280.163 8.35511C278.842 8.35511 277.646 8.68892 276.573 9.35653C275.508 10.0241 274.659 11.0078 274.027 12.3075C273.402 13.6072 273.09 15.2017 273.09 17.0909C273.09 18.9801 273.402 20.5746 274.027 21.8743C274.659 23.174 275.508 24.1577 276.573 24.8253C277.646 25.4929 278.842 25.8267 280.163 25.8267C281.484 25.8267 282.678 25.4929 283.743 24.8253C284.815 24.1577 285.664 23.174 286.289 21.8743C286.921 20.5746 287.237 18.9801 287.237 17.0909ZM312.993 13H310.351C310.195 12.2401 309.922 11.5724 309.531 10.9972C309.148 10.4219 308.679 9.93892 308.125 9.5483C307.578 9.15057 306.971 8.85227 306.303 8.65341C305.635 8.45455 304.939 8.35511 304.215 8.35511C302.894 8.35511 301.697 8.68892 300.625 9.35653C299.559 10.0241 298.711 11.0078 298.079 12.3075C297.454 13.6072 297.141 15.2017 297.141 17.0909C297.141 18.9801 297.454 20.5746 298.079 21.8743C298.711 23.174 299.559 24.1577 300.625 24.8253C301.697 25.4929 302.894 25.8267 304.215 25.8267C304.939 25.8267 305.635 25.7273 306.303 25.5284C306.971 25.3295 307.578 25.0348 308.125 24.6442C308.679 24.2464 309.148 23.7599 309.531 23.1847C309.922 22.6023 310.195 21.9347 310.351 21.1818H312.993C312.795 22.2969 312.432 23.2947 311.907 24.1754C311.381 25.0561 310.728 25.8054 309.947 26.4233C309.165 27.0341 308.288 27.4993 307.315 27.8189C306.349 28.1385 305.316 28.2983 304.215 28.2983C302.354 28.2983 300.699 27.8438 299.25 26.9347C297.802 26.0256 296.662 24.733 295.831 23.0568C295 21.3807 294.584 19.392 294.584 17.0909C294.584 14.7898 295 12.8011 295.831 11.125C296.662 9.44886 297.802 8.15625 299.25 7.24716C300.699 6.33807 302.354 5.88352 304.215 5.88352C305.316 5.88352 306.349 6.04332 307.315 6.36293C308.288 6.68253 309.165 7.15128 309.947 7.76918C310.728 8.37997 311.381 9.12571 311.907 10.0064C312.432 10.88 312.795 11.8778 312.993 13ZM336.02 13H333.378C333.221 12.2401 332.948 11.5724 332.557 10.9972C332.174 10.4219 331.705 9.93892 331.151 9.5483C330.604 9.15057 329.997 8.85227 329.329 8.65341C328.662 8.45455 327.966 8.35511 327.241 8.35511C325.92 8.35511 324.723 8.68892 323.651 9.35653C322.586 10.0241 321.737 11.0078 321.105 12.3075C320.48 13.6072 320.167 15.2017 320.167 17.0909C320.167 18.9801 320.48 20.5746 321.105 21.8743C321.737 23.174 322.586 24.1577 323.651 24.8253C324.723 25.4929 325.92 25.8267 327.241 25.8267C327.966 25.8267 328.662 25.7273 329.329 25.5284C329.997 25.3295 330.604 25.0348 331.151 24.6442C331.705 24.2464 332.174 23.7599 332.557 23.1847C332.948 22.6023 333.221 21.9347 333.378 21.1818H336.02C335.821 22.2969 335.458 23.2947 334.933 24.1754C334.407 25.0561 333.754 25.8054 332.973 26.4233C332.191 27.0341 331.314 27.4993 330.341 27.8189C329.375 28.1385 328.342 28.2983 327.241 28.2983C325.38 28.2983 323.726 27.8438 322.277 26.9347C320.828 26.0256 319.688 24.733 318.857 23.0568C318.026 21.3807 317.61 19.392 317.61 17.0909C317.61 14.7898 318.026 12.8011 318.857 11.125C319.688 9.44886 320.828 8.15625 322.277 7.24716C323.726 6.33807 325.38 5.88352 327.241 5.88352C328.342 5.88352 329.375 6.04332 330.341 6.36293C331.314 6.68253 332.191 7.15128 332.973 7.76918C333.754 8.37997 334.407 9.12571 334.933 10.0064C335.458 10.88 335.821 11.8778 336.02 13ZM341.489 6.18182H344.088V23.3551H344.301L356.233 6.18182H358.79V28H356.148V10.8693H355.935L344.046 28H341.489V6.18182ZM365.277 6.18182H367.876V23.3551H368.089L380.021 6.18182H382.578V28H379.936V10.8693H379.723L367.834 28H365.277V6.18182ZM376.015 0.727272H378.359C378.359 1.87784 377.961 2.81889 377.166 3.55043C376.371 4.28196 375.291 4.64773 373.927 4.64773C372.585 4.64773 371.516 4.28196 370.721 3.55043C369.932 2.81889 369.538 1.87784 369.538 0.727272H371.882C371.882 1.28125 372.035 1.76776 372.34 2.18679C372.653 2.60582 373.182 2.81534 373.927 2.81534C374.673 2.81534 375.206 2.60582 375.525 2.18679C375.852 1.76776 376.015 1.28125 376.015 0.727272ZM406.622 13H403.979C403.823 12.2401 403.55 11.5724 403.159 10.9972C402.776 10.4219 402.307 9.93892 401.753 9.5483C401.206 9.15057 400.599 8.85227 399.931 8.65341C399.264 8.45455 398.568 8.35511 397.843 8.35511C396.522 8.35511 395.325 8.68892 394.253 9.35653C393.188 10.0241 392.339 11.0078 391.707 12.3075C391.082 13.6072 390.769 15.2017 390.769 17.0909C390.769 18.9801 391.082 20.5746 391.707 21.8743C392.339 23.174 393.188 24.1577 394.253 24.8253C395.325 25.4929 396.522 25.8267 397.843 25.8267C398.568 25.8267 399.264 25.7273 399.931 25.5284C400.599 25.3295 401.206 25.0348 401.753 24.6442C402.307 24.2464 402.776 23.7599 403.159 23.1847C403.55 22.6023 403.823 21.9347 403.979 21.1818H406.622C406.423 22.2969 406.06 23.2947 405.535 24.1754C405.009 25.0561 404.356 25.8054 403.575 26.4233C402.793 27.0341 401.916 27.4993 400.943 27.8189C399.977 28.1385 398.944 28.2983 397.843 28.2983C395.982 28.2983 394.327 27.8438 392.879 26.9347C391.43 26.0256 390.29 24.733 389.459 23.0568C388.628 21.3807 388.212 19.392 388.212 17.0909C388.212 14.7898 388.628 12.8011 389.459 11.125C390.29 9.44886 391.43 8.15625 392.879 7.24716C394.327 6.33807 395.982 5.88352 397.843 5.88352C398.944 5.88352 399.977 6.04332 400.943 6.36293C401.916 6.68253 402.793 7.15128 403.575 7.76918C404.356 8.37997 405.009 9.12571 405.535 10.0064C406.06 10.88 406.423 11.8778 406.622 13ZM424.918 28L417.418 17.9858H414.733V28H412.091V6.18182H414.733V15.642H415.883L424.619 6.18182H427.773L418.952 15.7699L428.071 28H424.918ZM450.069 17.0909C450.069 19.392 449.654 21.3807 448.823 23.0568C447.992 24.733 446.852 26.0256 445.403 26.9347C443.954 27.8438 442.299 28.2983 440.438 28.2983C438.578 28.2983 436.923 27.8438 435.474 26.9347C434.025 26.0256 432.885 24.733 432.054 23.0568C431.223 21.3807 430.808 19.392 430.808 17.0909C430.808 14.7898 431.223 12.8011 432.054 11.125C432.885 9.44886 434.025 8.15625 435.474 7.24716C436.923 6.33807 438.578 5.88352 440.438 5.88352C442.299 5.88352 443.954 6.33807 445.403 7.24716C446.852 8.15625 447.992 9.44886 448.823 11.125C449.654 12.8011 450.069 14.7898 450.069 17.0909ZM447.512 17.0909C447.512 15.2017 447.196 13.6072 446.564 12.3075C445.939 11.0078 445.09 10.0241 444.018 9.35653C442.953 8.68892 441.759 8.35511 440.438 8.35511C439.117 8.35511 437.921 8.68892 436.848 9.35653C435.783 10.0241 434.934 11.0078 434.302 12.3075C433.677 13.6072 433.365 15.2017 433.365 17.0909C433.365 18.9801 433.677 20.5746 434.302 21.8743C434.934 23.174 435.783 24.1577 436.848 24.8253C437.921 25.4929 439.117 25.8267 440.438 25.8267C441.759 25.8267 442.953 25.4929 444.018 24.8253C445.09 24.1577 445.939 23.174 446.564 21.8743C447.196 20.5746 447.512 18.9801 447.512 17.0909ZM464.746 15.919V18.2628H455.2V15.919H464.746ZM470.71 28V6.18182H483.878V8.52557H473.352V15.3438H478.892C480.455 15.3438 481.772 15.5994 482.845 16.1108C483.924 16.6222 484.741 17.343 485.295 18.2734C485.856 19.2038 486.137 20.3011 486.137 21.5653C486.137 22.8295 485.856 23.9446 485.295 24.9105C484.741 25.8764 483.924 26.6328 482.845 27.1797C481.772 27.7266 480.455 28 478.892 28H470.71ZM473.352 25.6989H478.892C479.887 25.6989 480.728 25.5 481.417 25.1023C482.113 24.6974 482.639 24.179 482.994 23.5469C483.356 22.9077 483.537 22.233 483.537 21.5227C483.537 20.4787 483.136 19.5803 482.333 18.8274C481.531 18.0675 480.384 17.6875 478.892 17.6875H473.352V25.6989ZM491.686 28V6.18182H499.058C500.77 6.18182 502.169 6.49077 503.255 7.10866C504.349 7.71946 505.159 8.54688 505.684 9.59091C506.21 10.6349 506.473 11.7997 506.473 13.0852C506.473 14.3707 506.21 15.5391 505.684 16.5902C505.166 17.6413 504.363 18.4794 503.277 19.1044C502.19 19.7223 500.798 20.0312 499.101 20.0312H493.816V17.6875H499.015C500.187 17.6875 501.128 17.4851 501.838 17.0803C502.549 16.6754 503.064 16.1286 503.383 15.4396C503.71 14.7436 503.873 13.9588 503.873 13.0852C503.873 12.2116 503.71 11.4304 503.383 10.7415C503.064 10.0526 502.545 9.51278 501.828 9.12216C501.111 8.72443 500.159 8.52557 498.973 8.52557H494.328V28H491.686ZM511.929 6.18182H514.528V23.3551H514.741L526.673 6.18182H529.23V28H526.588V10.8693H526.375L514.486 28H511.929V6.18182ZM534.523 8.52557V6.18182H550.887V8.52557H544.026V28H541.384V8.52557H534.523ZM554.511 28H551.741L559.752 6.18182H562.479L570.491 28H567.721L561.201 9.63352H561.031L554.511 28ZM555.533 19.4773H566.698V21.821H555.533V19.4773ZM575.089 28V6.18182H577.731V15.8977H589.365V6.18182H592.007V28H589.365V18.2415H577.731V28H575.089ZM616.053 13H613.411C613.255 12.2401 612.981 11.5724 612.591 10.9972C612.207 10.4219 611.739 9.93892 611.185 9.5483C610.638 9.15057 610.03 8.85227 609.363 8.65341C608.695 8.45455 607.999 8.35511 607.275 8.35511C605.954 8.35511 604.757 8.68892 603.685 9.35653C602.619 10.0241 601.771 11.0078 601.138 12.3075C600.513 13.6072 600.201 15.2017 600.201 17.0909C600.201 18.9801 600.513 20.5746 601.138 21.8743C601.771 23.174 602.619 24.1577 603.685 24.8253C604.757 25.4929 605.954 25.8267 607.275 25.8267C607.999 25.8267 608.695 25.7273 609.363 25.5284C610.03 25.3295 610.638 25.0348 611.185 24.6442C611.739 24.2464 612.207 23.7599 612.591 23.1847C612.981 22.6023 613.255 21.9347 613.411 21.1818H616.053C615.854 22.2969 615.492 23.2947 614.967 24.1754C614.441 25.0561 613.788 25.8054 613.006 26.4233C612.225 27.0341 611.348 27.4993 610.375 27.8189C609.409 28.1385 608.376 28.2983 607.275 28.2983C605.414 28.2983 603.759 27.8438 602.31 26.9347C600.861 26.0256 599.721 24.733 598.891 23.0568C598.06 21.3807 597.644 19.392 597.644 17.0909C597.644 14.7898 598.06 12.8011 598.891 11.125C599.721 9.44886 600.861 8.15625 602.31 7.24716C603.759 6.33807 605.414 5.88352 607.275 5.88352C608.376 5.88352 609.409 6.04332 610.375 6.36293C611.348 6.68253 612.225 7.15128 613.006 7.76918C613.788 8.37997 614.441 9.12571 614.967 10.0064C615.492 10.88 615.854 11.8778 616.053 13ZM634.349 28L626.849 17.9858H624.165V28H621.523V6.18182H624.165V15.642H625.315L634.051 6.18182H637.204L628.383 15.7699L637.503 28H634.349ZM643.012 28H640.242L648.253 6.18182H650.981L658.992 28H656.222L649.702 9.63352H649.532L643.012 28ZM644.035 19.4773H655.199V21.821H644.035V19.4773ZM678.42 28H675.778V8.52557H671.133C669.954 8.52557 669.006 8.70668 668.289 9.06889C667.571 9.42401 667.049 9.92827 666.723 10.5817C666.396 11.2351 666.233 11.9986 666.233 12.8722C666.233 13.7457 666.392 14.4986 666.712 15.1307C667.039 15.7557 667.557 16.2386 668.267 16.5795C668.985 16.9205 669.926 17.0909 671.09 17.0909H676.971V19.4773H671.005C669.315 19.4773 667.926 19.1967 666.84 18.6357C665.753 18.0675 664.947 17.2862 664.421 16.2919C663.896 15.2976 663.633 14.1577 663.633 12.8722C663.633 11.5866 663.896 10.4396 664.421 9.43111C664.947 8.42258 665.757 7.63068 666.85 7.0554C667.944 6.47301 669.343 6.18182 671.048 6.18182H678.42V28ZM668.15 18.1989H671.133L665.849 28H662.781L668.15 18.1989ZM707.382 28L699.882 17.9858H697.197V28H694.555V6.18182H697.197V15.642H698.348L707.083 6.18182H710.237L701.416 15.7699L710.535 28H707.382ZM716.3 28.2983V25.8267H717.664C718.189 25.8267 718.63 25.7237 718.985 25.5178C719.347 25.3118 719.645 25.0455 719.88 24.7188C720.121 24.392 720.32 24.0511 720.476 23.696L720.817 22.8864L713.274 6.18182H716.13L722.138 19.733L727.635 6.18182H730.448L722.905 24.4631C722.607 25.1449 722.266 25.777 721.882 26.3594C721.506 26.9418 720.991 27.4105 720.338 27.7656C719.691 28.1207 718.814 28.2983 717.706 28.2983H716.3ZM733.195 28V25.571H733.834C734.743 25.571 735.45 25.2798 735.954 24.6974C736.459 24.1151 736.821 23.174 737.041 21.8743C737.268 20.5746 737.421 18.8523 737.499 16.7074L737.883 6.18182H751.178V28H748.536V8.52557H740.397L740.056 17.2188C739.971 19.5057 739.761 21.4517 739.427 23.0568C739.094 24.6619 738.508 25.8871 737.67 26.7322C736.832 27.5774 735.61 28 734.005 28H733.195ZM759.617 15.3438H765.839C767.401 15.3438 768.719 15.5994 769.791 16.1108C770.871 16.6222 771.687 17.343 772.241 18.2734C772.802 19.2038 773.083 20.3011 773.083 21.5653C773.083 22.8295 772.802 23.9446 772.241 24.9105C771.687 25.8764 770.871 26.6328 769.791 27.1797C768.719 27.7266 767.401 28 765.839 28H757.657V6.18182H760.299V25.6989H765.839C766.833 25.6989 767.675 25.5 768.364 25.1023C769.06 24.6974 769.585 24.179 769.94 23.5469C770.302 22.9077 770.484 22.233 770.484 21.5227C770.484 20.4787 770.082 19.5803 769.28 18.8274C768.477 18.0675 767.33 17.6875 765.839 17.6875H759.617V15.3438ZM776.062 8.52557V6.18182H792.426V8.52557H785.565V28H782.923V8.52557H776.062ZM798.854 28.2983V25.8267H800.218C800.743 25.8267 801.183 25.7237 801.539 25.5178C801.901 25.3118 802.199 25.0455 802.433 24.7188C802.675 24.392 802.874 24.0511 803.03 23.696L803.371 22.8864L795.828 6.18182H798.683L804.692 19.733L810.189 6.18182H813.002L805.459 24.4631C805.161 25.1449 804.82 25.777 804.436 26.3594C804.06 26.9418 803.545 27.4105 802.892 27.7656C802.245 28.1207 801.368 28.2983 800.26 28.2983H798.854ZM817.624 28V6.18182H824.996C826.708 6.18182 828.107 6.49077 829.194 7.10866C830.287 7.71946 831.097 8.54688 831.623 9.59091C832.148 10.6349 832.411 11.7997 832.411 13.0852C832.411 14.3707 832.148 15.5391 831.623 16.5902C831.104 17.6413 830.302 18.4794 829.215 19.1044C828.128 19.7223 826.736 20.0312 825.039 20.0312H819.755V17.6875H824.954C826.126 17.6875 827.067 17.4851 827.777 17.0803C828.487 16.6754 829.002 16.1286 829.322 15.4396C829.648 14.7436 829.812 13.9588 829.812 13.0852C829.812 12.2116 829.648 11.4304 829.322 10.7415C829.002 10.0526 828.483 9.51278 827.766 9.12216C827.049 8.72443 826.097 8.52557 824.911 8.52557H820.266V28H817.624ZM837.867 28V6.18182H840.509V15.8977H852.143V6.18182H854.785V28H852.143V18.2415H840.509V28H837.867ZM862.169 28H859.399L867.41 6.18182H870.138L878.149 28H875.379L868.859 9.63352H868.689L862.169 28ZM863.192 19.4773H874.356V21.821H863.192V19.4773ZM897.577 28H894.935V8.52557H890.29C889.111 8.52557 888.163 8.70668 887.446 9.06889C886.728 9.42401 886.206 9.92827 885.88 10.5817C885.553 11.2351 885.39 11.9986 885.39 12.8722C885.39 13.7457 885.549 14.4986 885.869 15.1307C886.196 15.7557 886.714 16.2386 887.424 16.5795C888.142 16.9205 889.083 17.0909 890.248 17.0909H896.128V19.4773H890.162C888.472 19.4773 887.083 19.1967 885.997 18.6357C884.91 18.0675 884.104 17.2862 883.578 16.2919C883.053 15.2976 882.79 14.1577 882.79 12.8722C882.79 11.5866 883.053 10.4396 883.578 9.43111C884.104 8.42258 884.914 7.63068 886.007 7.0554C887.101 6.47301 888.5 6.18182 890.205 6.18182H897.577V28ZM887.307 18.1989H890.29L885.006 28H881.938L887.307 18.1989ZM914.607 28H911.837L919.848 6.18182H922.576L930.587 28H927.817L921.297 9.63352H921.127L914.607 28ZM915.63 19.4773H926.794V21.821H915.63V19.4773ZM951.717 13H949.075C948.919 12.2401 948.645 11.5724 948.254 10.9972C947.871 10.4219 947.402 9.93892 946.848 9.5483C946.301 9.15057 945.694 8.85227 945.026 8.65341C944.359 8.45455 943.663 8.35511 942.938 8.35511C941.617 8.35511 940.421 8.68892 939.348 9.35653C938.283 10.0241 937.434 11.0078 936.802 12.3075C936.177 13.6072 935.865 15.2017 935.865 17.0909C935.865 18.9801 936.177 20.5746 936.802 21.8743C937.434 23.174 938.283 24.1577 939.348 24.8253C940.421 25.4929 941.617 25.8267 942.938 25.8267C943.663 25.8267 944.359 25.7273 945.026 25.5284C945.694 25.3295 946.301 25.0348 946.848 24.6442C947.402 24.2464 947.871 23.7599 948.254 23.1847C948.645 22.6023 948.919 21.9347 949.075 21.1818H951.717C951.518 22.2969 951.156 23.2947 950.63 24.1754C950.105 25.0561 949.451 25.8054 948.67 26.4233C947.889 27.0341 947.012 27.4993 946.039 27.8189C945.073 28.1385 944.039 28.2983 942.938 28.2983C941.078 28.2983 939.423 27.8438 937.974 26.9347C936.525 26.0256 935.385 24.733 934.554 23.0568C933.723 21.3807 933.308 19.392 933.308 17.0909C933.308 14.7898 933.723 12.8011 934.554 11.125C935.385 9.44886 936.525 8.15625 937.974 7.24716C939.423 6.33807 941.078 5.88352 942.938 5.88352C944.039 5.88352 945.073 6.04332 946.039 6.36293C947.012 6.68253 947.889 7.15128 948.67 7.76918C949.451 8.37997 950.105 9.12571 950.63 10.0064C951.156 10.88 951.518 11.8778 951.717 13ZM974.743 13H972.101C971.945 12.2401 971.671 11.5724 971.281 10.9972C970.897 10.4219 970.428 9.93892 969.874 9.5483C969.328 9.15057 968.72 8.85227 968.053 8.65341C967.385 8.45455 966.689 8.35511 965.965 8.35511C964.644 8.35511 963.447 8.68892 962.374 9.35653C961.309 10.0241 960.46 11.0078 959.828 12.3075C959.203 13.6072 958.891 15.2017 958.891 17.0909C958.891 18.9801 959.203 20.5746 959.828 21.8743C960.46 23.174 961.309 24.1577 962.374 24.8253C963.447 25.4929 964.644 25.8267 965.965 25.8267C966.689 25.8267 967.385 25.7273 968.053 25.5284C968.72 25.3295 969.328 25.0348 969.874 24.6442C970.428 24.2464 970.897 23.7599 971.281 23.1847C971.671 22.6023 971.945 21.9347 972.101 21.1818H974.743C974.544 22.2969 974.182 23.2947 973.656 24.1754C973.131 25.0561 972.477 25.8054 971.696 26.4233C970.915 27.0341 970.038 27.4993 969.065 27.8189C968.099 28.1385 967.065 28.2983 965.965 28.2983C964.104 28.2983 962.449 27.8438 961 26.9347C959.551 26.0256 958.411 24.733 957.58 23.0568C956.749 21.3807 956.334 19.392 956.334 17.0909C956.334 14.7898 956.749 12.8011 957.58 11.125C958.411 9.44886 959.551 8.15625 961 7.24716C962.449 6.33807 964.104 5.88352 965.965 5.88352C967.065 5.88352 968.099 6.04332 969.065 6.36293C970.038 6.68253 970.915 7.15128 971.696 7.76918C972.477 8.37997 973.131 9.12571 973.656 10.0064C974.182 10.88 974.544 11.8778 974.743 13ZM998.621 17.0909C998.621 19.392 998.206 21.3807 997.375 23.0568C996.544 24.733 995.404 26.0256 993.955 26.9347C992.506 27.8438 990.852 28.2983 988.991 28.2983C987.13 28.2983 985.475 27.8438 984.026 26.9347C982.577 26.0256 981.438 24.733 980.607 23.0568C979.776 21.3807 979.36 19.392 979.36 17.0909C979.36 14.7898 979.776 12.8011 980.607 11.125C981.438 9.44886 982.577 8.15625 984.026 7.24716C985.475 6.33807 987.13 5.88352 988.991 5.88352C990.852 5.88352 992.506 6.33807 993.955 7.24716C995.404 8.15625 996.544 9.44886 997.375 11.125C998.206 12.8011 998.621 14.7898 998.621 17.0909ZM996.065 17.0909C996.065 15.2017 995.749 13.6072 995.116 12.3075C994.491 11.0078 993.643 10.0241 992.57 9.35653C991.505 8.68892 990.312 8.35511 988.991 8.35511C987.67 8.35511 986.473 8.68892 985.401 9.35653C984.335 10.0241 983.487 11.0078 982.854 12.3075C982.229 13.6072 981.917 15.2017 981.917 17.0909C981.917 18.9801 982.229 20.5746 982.854 21.8743C983.487 23.174 984.335 24.1577 985.401 24.8253C986.473 25.4929 987.67 25.8267 988.991 25.8267C990.312 25.8267 991.505 25.4929 992.57 24.8253C993.643 24.1577 994.491 23.174 995.116 21.8743C995.749 20.5746 996.065 18.9801 996.065 17.0909ZM1022.8 25.4858L1022.5 33.1562H1019.78V28H1018.24V25.4858H1022.8ZM1004.26 28V6.18182H1006.78V25.571H1018.03V6.18182H1020.54V28H1004.26ZM1027.99 6.18182H1030.59V23.3551H1030.81L1042.74 6.18182H1045.29V28H1042.65V10.8693H1042.44L1030.55 28H1027.99V6.18182ZM1052.68 28H1049.91L1057.92 6.18182H1060.64L1068.66 28H1065.89L1059.37 9.63352H1059.2L1052.68 28ZM1053.7 19.4773H1064.86V21.821H1053.7V19.4773ZM1091.79 25.4858L1091.49 33.1562H1088.77V28H1087.23V25.4858H1091.79ZM1073.25 28V6.18182H1075.77V25.571H1087.02V6.18182H1089.53V28H1073.25ZM1096.98 6.18182H1099.58V23.3551H1099.8L1111.73 6.18182H1114.28V28H1111.64V10.8693H1111.43L1099.54 28H1096.98V6.18182ZM1135.6 28H1132.96V8.52557H1128.31C1127.14 8.52557 1126.19 8.70668 1125.47 9.06889C1124.75 9.42401 1124.23 9.92827 1123.9 10.5817C1123.58 11.2351 1123.41 11.9986 1123.41 12.8722C1123.41 13.7457 1123.57 14.4986 1123.89 15.1307C1124.22 15.7557 1124.74 16.2386 1125.45 16.5795C1126.17 16.9205 1127.11 17.0909 1128.27 17.0909H1134.15V19.4773H1128.19C1126.5 19.4773 1125.11 19.1967 1124.02 18.6357C1122.93 18.0675 1122.13 17.2862 1121.6 16.2919C1121.08 15.2976 1120.81 14.1577 1120.81 12.8722C1120.81 11.5866 1121.08 10.4396 1121.6 9.43111C1122.13 8.42258 1122.94 7.63068 1124.03 7.0554C1125.13 6.47301 1126.52 6.18182 1128.23 6.18182H1135.6V28ZM1125.33 18.1989H1128.31L1123.03 28H1119.96L1125.33 18.1989Z" fill="black"/>
<rect x="248.5" y="51" width="890" height="4" fill="#FC0100"/>
<path d="M255.686 185.782H267.058L267.125 93.8691H255.686V88.6514H306.124C316.605 88.6514 324.387 91.0596 329.471 95.876C334.599 100.648 337.164 106.802 337.164 114.339C337.164 123.124 333.105 129.613 324.989 133.805C322.581 135.054 320.039 136.035 317.363 136.749C325.97 137.774 332.548 140.539 337.097 145.043C341.645 149.548 343.92 155.078 343.92 161.633C343.92 170.642 340.62 177.799 334.02 183.106C327.464 188.369 318.076 191 305.857 191H255.686V185.782ZM301.509 135.344C311.186 135.344 316.961 131.196 318.834 122.901C319.414 120.404 319.704 117.728 319.704 114.874C319.704 108.095 318.611 103.19 316.426 100.157C313.483 95.9652 307.908 93.8691 299.703 93.8691H285.12V135.344H301.509ZM300.639 185.782C308.756 185.782 314.955 183.842 319.236 179.962C323.562 176.083 325.725 170.575 325.725 163.439C325.725 152.959 321.555 145.958 313.215 142.435C310.183 141.141 306.481 140.495 302.111 140.495H285.12V185.782H300.639ZM404.457 88.6514C430.1 88.6514 442.921 97.2585 442.921 114.473C442.921 122.277 440.558 128.498 435.83 133.136C431.103 137.774 424.77 140.74 416.832 142.033C427.312 143.772 434.492 149.169 438.372 158.222C439.933 161.879 441.293 165.915 442.453 170.33C443.657 174.7 444.727 177.799 445.664 179.628C447.715 183.731 450.748 185.782 454.761 185.782H457.437L457.571 191.334H448.139C439.398 191.334 433.511 190.153 430.479 187.789C427.402 185.381 425.06 180.631 423.455 173.541C421.983 167.074 420.779 162.659 419.843 160.295C417.88 155.211 415.338 151.22 412.217 148.321C409.095 145.423 405.059 143.973 400.109 143.973H387.867V185.782H403.52V191H359.035V185.782H369.805L369.872 93.8691H359.035V88.6514H404.457ZM403.253 139.357C411.369 139.357 417.078 136.749 420.378 131.531C422.786 127.74 423.99 122.366 423.99 115.409C423.99 108.452 422.585 103.324 419.776 100.023C416.297 95.9206 410.388 93.8691 402.049 93.8691H387.867V139.357H403.253ZM465.663 185.782H478.841L478.908 93.8691H465.663V88.6514H510.081V93.8691H496.902V185.782H510.081V191H465.663V185.782ZM548.141 185.782H561.453L561.52 93.8022H549.077C541.719 94.2928 536.59 97.0132 533.692 101.963C531.462 105.754 530.146 112.042 529.745 120.828H524.527V88.6514H616.44V120.828H611.222C610.821 112.131 609.483 105.843 607.209 101.963C604.31 97.0132 599.204 94.2928 591.89 93.8022H579.514V185.782H592.893V191H548.141V185.782ZM626.07 185.782H633.295L671.023 88.6514H678.783L719.121 185.782H725.944V191H689.486V185.782H699.521L689.888 162.436H649.283L640.453 185.782H652.494V191H626.07V185.782ZM687.747 157.218L668.749 110.994L651.29 157.218H687.747ZM736.243 185.782H747.883V93.8691H736.243V88.6514H766.546L820.731 169.259V93.8691H807.753V88.6514H839.528V93.8691H827.286V191H814.844L754.438 102.231V185.782H768.018V191H736.243V185.782ZM853.373 185.782H866.551L866.618 93.8691H853.373V88.6514H897.791V93.8691H884.612V185.782H897.791V191H853.373V185.782ZM916.318 185.782H929.028L929.094 93.8691H916.318V88.6514H960.802V93.8691H947.089V140.495L994.049 93.8691H984.082V88.6514H1013.98V93.8691H1002.28L965.619 130.26L1010.97 185.782H1020.47V191H978.329V185.782H988.162L953.712 142.033L947.089 148.589V185.782H960.802V191H916.318V185.782ZM1036.12 165.647C1034.25 161.722 1032.82 157.575 1031.84 153.205C1030.91 148.79 1030.44 144.352 1030.44 139.893C1030.44 135.388 1030.91 130.996 1031.84 126.714C1032.82 122.389 1034.25 118.286 1036.12 114.406C1040.05 106.245 1045.82 99.689 1053.45 94.7388C1061.12 89.7886 1070.33 87.3135 1081.08 87.3135C1097.4 87.3135 1110.18 92.7542 1119.41 103.636C1127.66 113.447 1131.78 125.577 1131.78 140.026C1131.78 154.476 1127.61 166.606 1119.27 176.417C1113.56 183.106 1106.05 187.744 1096.73 190.331C1092 191.669 1086.81 192.338 1081.14 192.338C1075.52 192.338 1070.37 191.691 1065.69 190.398C1061.01 189.06 1056.79 187.209 1053.05 184.846C1049.3 182.482 1046 179.673 1043.15 176.417C1040.34 173.117 1038 169.527 1036.12 165.647ZM1105.23 171.199C1106.92 168.122 1108.55 163.997 1110.11 158.824C1111.71 153.651 1112.52 148.232 1112.52 142.568C1112.52 136.86 1112.25 132.111 1111.71 128.32C1111.22 124.485 1110.44 120.85 1109.37 117.416C1107.01 110.013 1103.46 104.082 1098.74 99.6221C1094.05 95.1178 1088.17 92.8657 1081.08 92.8657C1070.02 92.8657 1061.79 97.8159 1056.39 107.716C1051.8 116.234 1049.57 126.826 1049.7 139.491C1049.88 152.112 1052.2 162.681 1056.66 171.199C1062.19 181.59 1070.24 186.786 1080.81 186.786C1091.38 186.786 1099.52 181.59 1105.23 171.199Z" fill="black"/>
</svg>
