<svg width="211" height="254" viewBox="0 0 211 254" fill="none" xmlns="http://www.w3.org/2000/svg">
<g clip-path="url(#clip0_78_202)">
<path d="M210 0H2V208H210V0Z" fill="white"/>
<path d="M5.5 204V4H205.5V204H5.5ZM1.5 208H209.5V0H1.5V208Z" fill="#054189"/>
<path d="M11.5 198L199.5 198L199.5 10L11.5 10L11.5 198Z" fill="white"/>
<path d="M11.5 194.13V119.01H87.5L11.5 194.13Z" fill="#054189"/>
<path d="M11.5 89.9407V31.9707L70.15 89.9407H11.5Z" fill="#054189"/>
<path d="M121.5 83L195.35 10H121.5V83Z" fill="#054189"/>
<path d="M91.5194 67L33.8594 10H91.5194V67Z" fill="#054189"/>
<path d="M100.5 104H11.5V114H100.5V104Z" fill="#FC0100"/>
<path d="M105.5 103V10H95.5V103H105.5Z" fill="#FC0100"/>
<path d="M11.5 23.08V10H25.5L103.5 88L95.5 96L89.96 101.54L11.5 23.08Z" fill="#FC0100"/>
<path d="M11.5 198L105.5 104H199.5V198H11.5Z" fill="#D52B1E"/>
<path d="M105.5 104L136.83 72.67L199.5 10V104H105.5Z" fill="white"/>
<path d="M74.1699 135.33L105.5 104L136.83 72.6699H199.5V135.33H74.1699Z" fill="#0039A6"/>
<path d="M11.5 198V192.34L193.84 10H199.5V15.66L17.16 198H11.5Z" fill="white"/>
<path d="M107.959 188L98.2491 153.89C95.2691 156.48 91.4691 157.75 88.2691 158.82L88.0191 158.9C84.4691 160.09 82.0991 161.74 81.1591 163.7C80.8591 164.32 80.7291 164.93 80.6791 165.47C85.5591 166.48 95.1491 169.18 100.739 175.55L101.729 176.68V188H64.5391L54.6691 153.72L57.5991 152.22C61.7791 150.08 64.9891 146.29 66.4091 141.82C67.1991 139.24 67.8291 136.62 68.2691 133.97C60.6691 132.05 55.2991 125.1 55.4091 117.21C55.3691 113.24 56.8191 109.32 59.4891 106.26C61.3291 104.11 63.7991 102.56 66.5091 101.79V101.49L69.0091 101.32C69.2791 101.29 69.5491 101.28 69.8091 101.27L70.2591 101.24C72.8391 101.08 75.2591 99.8298 76.8791 97.8198C78.7691 95.4898 79.8091 92.5798 79.8091 89.5998C79.8091 88.0498 77.4591 77.1898 67.9791 77.1898C65.6991 77.1898 62.0791 79.5198 62.0791 81.4498C62.0791 89.0698 55.8691 95.2698 48.2491 95.2698C48.0491 95.2698 47.8591 95.2698 47.6691 95.2598C43.5691 95.2298 34.2891 93.2798 34.2891 76.2998V63.7998L41.5491 73.9798C42.5991 75.4498 44.2291 76.3598 46.0291 76.4798C47.6691 76.4098 49.5291 74.4398 51.6691 72.1598C55.0991 68.5098 59.7891 63.5098 67.4691 63.5098C75.1491 63.5098 80.8491 66.5798 85.1391 70.8198C83.3491 65.1998 82.1491 60.3398 81.9491 54.5998C81.6991 46.5298 83.7491 38.5998 87.8491 31.6598C91.9291 24.6798 99.1991 20.3298 107.299 20.0298C107.639 20.0198 107.969 20.0098 108.309 20.0098C113.239 20.0098 118.099 21.3198 122.359 23.8098L121.639 26.0298C127.789 26.6798 129.979 28.1998 131.169 29.5598C131.959 30.4598 135.439 31.4198 140.339 31.4198H144.509V38.7898C144.779 39.5198 144.909 40.3498 144.909 41.2898C144.909 43.1098 144.049 44.9898 142.339 46.9098L143.139 46.5898L140.489 59.6898C144.219 59.3798 147.769 57.9198 150.639 55.4798C153.149 53.0698 155.169 50.2498 156.649 47.0998C158.459 43.2498 162.219 40.6398 166.459 40.2998H166.619L177.399 40.2898L175.289 52.9498L174.269 59.1398L172.329 70.8498L162.549 70.8798C160.339 70.9798 159.719 71.9198 158.069 75.7998C156.019 80.6098 152.939 87.8298 140.679 88.3198C141.299 89.6398 142.619 90.5198 144.139 90.5198H144.449C144.449 90.5198 144.839 90.5198 144.959 90.5198C147.289 90.5198 149.579 89.7498 151.429 88.3298C153.729 85.6398 157.049 84.0698 160.609 84.0098H170.169L168.239 95.7098L168.109 96.4698L166.169 108.19L165.159 114.29H155.119L154.269 113.86C151.339 112.37 148.049 111.52 144.769 111.39C140.899 111.52 137.089 112.24 133.439 113.53L132.779 113.76H132.489L127.769 115.6C126.369 116.15 124.999 116.76 123.679 117.43C125.889 118.61 129.009 120.51 132.119 123.16C139.879 129.77 143.989 137.95 143.989 146.8V149.41L141.599 150.46C137.409 152.31 127.339 158.27 124.959 165.75C130.149 166.98 139.069 169.83 144.009 175.58L144.979 176.7V188H107.959ZM103.309 142.47C103.099 146.79 101.799 149.88 99.9191 152.16L102.369 151.81C108.579 150.93 110.109 149.14 110.159 148.59C110.259 147.38 107.929 144.31 103.309 142.47ZM70.5591 116.88C70.4791 116.91 70.4191 116.95 70.3691 117.02C70.2991 117.11 70.2691 117.22 70.2791 117.33C70.2991 117.51 70.4291 117.66 70.6091 117.7L70.8991 117.77L72.7591 117.63C74.1291 117.53 76.1091 116.73 78.2891 115.29C75.8491 116.27 73.2391 116.82 70.5691 116.89L70.5591 116.88ZM129.079 48.4498C128.879 48.7898 128.829 49.2098 128.959 49.5898L128.999 49.7198L129.039 49.8498C129.159 50.3398 129.599 50.6798 130.099 50.6798C130.149 50.6798 130.199 50.6798 130.259 50.6698L130.449 50.6398H130.639C131.679 50.5898 132.699 50.4498 133.709 50.2098L133.609 47.1398C130.979 47.2998 129.509 47.9598 129.089 48.4398L129.079 48.4498Z" fill="white"/>
<path d="M93.8288 84.3192C89.3988 70.3692 86.2688 63.7292 85.9588 54.4492C85.7388 47.1592 87.5888 39.9592 91.3088 33.6792C94.6788 27.8992 100.779 24.2492 107.469 24.0092C111.989 23.8492 116.459 24.9692 120.359 27.2492C118.199 27.0492 116.039 26.9492 113.869 26.9792C109.309 26.9792 104.889 27.2592 104.839 27.2592L104.319 27.2992V36.6592C101.269 38.0092 88.6688 49.8192 101.709 84.3292H93.8388L93.8288 84.3192ZM105.699 84.3192C96.7488 63.1992 99.2288 47.0392 105.159 40.5092C106.719 42.3392 108.899 43.5192 111.289 43.8092C109.509 47.9492 108.629 52.4092 108.679 56.9192C108.729 61.6692 109.839 66.3492 111.949 70.6092C114.679 75.9392 118.529 80.6092 123.229 84.3192H105.699ZM129.219 84.3192C123.409 80.6792 118.729 75.4892 115.699 69.3392C112.679 63.1792 111.819 56.1792 113.249 49.4692C113.809 52.9392 115.329 56.1892 117.639 58.8392C119.979 61.1392 123.889 62.2592 129.589 62.2592C131.589 62.1392 133.529 62.9492 134.849 64.4492C138.209 68.3792 137.359 76.7092 136.849 81.6792C136.739 82.7392 136.659 83.6392 136.609 84.3292H129.219V84.3192ZM136.289 60.3892C134.999 59.3092 131.829 57.7392 124.239 57.7392C118.979 57.7392 117.429 51.6792 116.179 46.8092C115.269 43.2492 114.489 40.1692 112.359 40.1692C107.279 40.1692 107.189 36.2792 107.189 36.1092V29.9392C108.319 29.8692 111.189 29.6892 114.449 29.6892C121.889 29.6892 126.769 30.5692 128.169 32.1792C130.719 35.0992 137.539 35.4092 140.349 35.4092H140.519V37.2492C140.429 37.3292 140.329 37.3892 140.219 37.4392C139.729 37.6292 139.389 38.0792 139.339 38.6092C139.359 39.0392 139.659 39.4092 140.079 39.5192C140.479 39.6892 140.919 39.8792 140.919 41.2892C140.919 42.8292 138.959 44.8092 137.549 45.9892C137.529 45.2892 137.289 44.6192 136.879 44.0492C136.459 43.4692 135.789 43.1292 135.079 43.1092H134.779C132.249 43.1092 127.709 43.4992 125.789 46.1492C124.859 47.5292 124.619 49.2692 125.149 50.8492C125.799 53.3592 128.219 54.9892 130.789 54.6292C133.179 54.5292 135.539 54.0092 137.749 53.1092L136.279 60.3992L136.289 60.3892ZM118.879 33.5092C119.359 34.3292 121.019 37.0292 122.339 37.1992C122.539 37.2292 122.749 37.2392 122.959 37.2392C124.179 37.1992 125.369 36.8792 126.449 36.3292L126.979 36.0492L126.669 35.5092C126.159 34.5892 125.419 33.8192 124.519 33.2692C122.829 32.9192 121.109 32.6992 119.379 32.6292L118.319 32.5592L118.879 33.5092ZM69.7188 130.189C63.6388 128.889 59.3188 123.469 59.4088 117.249C59.3788 114.169 60.4788 111.189 62.4988 108.869C64.3788 106.679 67.0788 105.369 69.9688 105.249L70.5088 105.229V105.209C74.2188 104.979 77.6688 103.199 79.9988 100.309C82.4688 97.2792 83.8188 93.4892 83.8088 89.5692C83.8088 86.0192 80.0588 73.1692 67.9788 73.1692C64.0288 73.1692 58.0788 76.6992 58.0788 81.4292C58.0788 86.8592 53.6688 91.2492 48.2388 91.2492C48.0788 91.2492 47.9288 91.2492 47.7688 91.2392C42.1688 91.2392 38.2988 86.8392 38.2988 76.2792C40.0788 78.7692 42.8988 80.3092 45.9588 80.4592C53.4388 80.4592 56.6088 67.4792 67.4788 67.4792C82.7988 67.4792 89.7588 82.4292 89.7588 89.5692C89.8188 95.2792 88.0288 100.849 84.6788 105.459C81.2888 110.059 75.9288 112.799 70.2088 112.849C67.7788 113.119 66.0388 115.309 66.3088 117.739C66.5188 119.609 67.8888 121.139 69.7188 121.559V130.159V130.189ZM139.989 84.3192C140.419 81.3392 141.829 69.6892 138.849 63.7392C144.159 63.7892 149.319 61.9092 153.349 58.4392C156.239 55.6792 158.599 52.4092 160.289 48.7892C161.489 46.2292 163.969 44.5092 166.799 44.2792H172.699L172.079 47.9892H166.389L165.979 50.4592H171.669L171.059 54.1692H165.369L164.909 56.9292H170.599L169.989 60.6492H164.299L163.889 63.1192H169.579L168.959 66.8392L162.479 66.8592C157.459 67.0492 155.969 70.5292 154.409 74.2092C152.429 78.8492 150.199 84.0992 139.999 84.3092M156.089 110.289C152.579 108.509 148.729 107.519 144.789 107.379C140.459 107.509 136.189 108.309 132.109 109.749C123.839 109.689 111.809 99.2492 107.099 87.9892H136.439C137.099 91.8692 140.539 94.6592 144.479 94.4992C148.039 94.6192 151.519 93.4392 154.269 91.1892C155.819 89.2092 158.179 88.0392 160.699 87.9992H165.479L164.869 91.6992H159.179L158.779 94.0792H164.469L163.859 97.7892H158.169L157.729 100.459H163.419L162.809 104.179H157.119L156.719 106.559H162.409L161.799 110.279H156.109L156.089 110.289ZM94.6288 183.999L92.9388 178.189H89.8088L91.4988 183.999H87.1988L85.5088 178.189H82.3688L84.0588 183.999H79.4688L77.7788 178.189H74.6388L76.3288 183.999H67.5388L59.4188 155.779C64.5688 153.139 68.4588 148.549 70.2188 143.029C72.3588 136.099 73.3088 128.859 73.0388 121.609C77.2288 121.299 82.9688 117.639 87.5088 112.299C93.2888 105.499 94.5788 96.8892 94.7088 87.9892H103.319C105.489 93.0992 108.359 97.8792 111.849 102.189C115.699 106.669 120.689 110.019 126.299 111.869C119.929 114.359 114.149 118.149 109.329 122.999C102.979 129.249 99.3288 135.889 99.3288 141.229C99.3288 151.029 93.1988 152.949 86.7388 155.109C73.3188 159.599 77.1688 168.919 77.1688 168.919C77.1688 168.919 91.0888 170.619 97.7188 178.179V183.989H94.6188L94.6288 183.999ZM137.849 183.999L136.159 178.189H133.019L134.709 183.999H130.409L128.719 178.189H125.589L127.279 183.999H122.689L120.999 178.189H117.859L119.549 183.999H110.979L102.939 155.779C121.149 153.209 114.179 141.719 103.329 138.229C106.629 130.609 112.099 124.139 119.069 119.639C119.069 119.639 139.989 128.099 139.989 146.809C139.989 146.809 120.439 155.379 120.439 168.929C120.439 168.929 134.889 171.129 140.969 178.189V183.999H137.839H137.849Z" fill="#435363"/>
</g>
<path d="M4.37715 248.857H6.86739L6.88203 228.73H4.37715V227.588H15.4221C17.717 227.588 19.4211 228.115 20.5344 229.17C21.6574 230.215 22.2189 231.562 22.2189 233.213C22.2189 235.137 21.3303 236.558 19.5529 237.476C19.0256 237.749 18.4689 237.964 17.883 238.12C19.7678 238.345 21.2082 238.95 22.2043 239.937C23.2004 240.923 23.6984 242.134 23.6984 243.569C23.6984 245.542 22.9758 247.109 21.5305 248.271C20.0949 249.424 18.0393 250 15.3635 250H4.37715V248.857ZM14.4113 237.812C16.5305 237.812 17.7951 236.904 18.2053 235.088C18.3322 234.541 18.3957 233.955 18.3957 233.33C18.3957 231.846 18.1564 230.771 17.6779 230.107C17.0334 229.189 15.8127 228.73 14.0158 228.73H10.8225V237.812H14.4113ZM14.2209 248.857C15.9982 248.857 17.3557 248.433 18.2932 247.583C19.2404 246.733 19.7141 245.527 19.7141 243.965C19.7141 241.67 18.801 240.137 16.9748 239.365C16.3107 239.082 15.5002 238.94 14.5432 238.94H10.8225V248.857H14.2209ZM36.9547 227.588C42.5699 227.588 45.3775 229.473 45.3775 233.242C45.3775 234.951 44.86 236.313 43.8248 237.329C42.7897 238.345 41.4029 238.994 39.6647 239.277C41.9596 239.658 43.5318 240.84 44.3814 242.822C44.7232 243.623 45.0211 244.507 45.275 245.474C45.5387 246.431 45.7731 247.109 45.9781 247.51C46.4273 248.408 47.0914 248.857 47.9703 248.857H48.5563L48.5856 250.073H46.5201C44.6061 250.073 43.317 249.814 42.6529 249.297C41.9791 248.77 41.4664 247.729 41.1148 246.177C40.7926 244.761 40.5289 243.794 40.3238 243.276C39.8941 242.163 39.3375 241.289 38.6539 240.654C37.9703 240.02 37.0865 239.702 36.0025 239.702H33.3219V248.857H36.7496V250H27.0084V248.857H29.3668L29.3814 228.73H27.0084V227.588H36.9547ZM36.691 238.691C38.4684 238.691 39.7184 238.12 40.441 236.978C40.9684 236.147 41.232 234.971 41.232 233.447C41.232 231.924 40.9244 230.801 40.3092 230.078C39.5475 229.18 38.2535 228.73 36.4273 228.73H33.3219V238.691H36.691ZM50.3574 248.857H53.2432L53.2578 228.73H50.3574V227.588H60.084V228.73H57.1982V248.857H60.084V250H50.3574V248.857ZM68.4184 248.857H71.3334L71.348 228.716H68.6234C67.0121 228.823 65.8891 229.419 65.2543 230.503C64.766 231.333 64.4779 232.71 64.39 234.634H63.2475V227.588H83.3744V234.634H82.2318C82.1439 232.729 81.851 231.353 81.3529 230.503C80.7182 229.419 79.6 228.823 77.9984 228.716H75.2885V248.857H78.2182V250H68.4184V248.857ZM85.4832 248.857H87.0652L95.327 227.588H97.0262L105.859 248.857H107.353V250H99.3699V248.857H101.567L99.4578 243.745H90.5662L88.6326 248.857H91.2693V250H85.4832V248.857ZM98.9891 242.603L94.8289 232.48L91.0057 242.603H98.9891ZM109.638 248.857H112.524L112.538 228.73H109.638V227.588H119.364V228.73H116.479V248.857H119.364V250H109.638V248.857ZM122.718 248.857H125.267V228.73H122.718V227.588H129.354L141.219 245.239V228.73H138.378V227.588H145.336V228.73H142.655V250H139.93L126.703 230.562V248.857H129.676V250H122.718V248.857ZM148.367 248.857H151.253L151.268 228.73H148.367V227.588H158.094V228.73H155.208V248.857H158.094V250H148.367V248.857ZM162.151 248.857H164.934L164.949 228.73H162.151V227.588H171.892V228.73H168.889V238.94L179.172 228.73H176.99V227.588H183.538V228.73H180.974L172.947 236.699L182.878 248.857H184.958V250H175.73V248.857H177.883L170.339 239.277L168.889 240.713V248.857H171.892V250H162.151V248.857ZM186.012 248.857H187.595L195.856 227.588H197.555L206.388 248.857H207.883V250H199.899V248.857H202.096L199.987 243.745H191.096L189.162 248.857H191.799V250H186.012V248.857ZM199.518 242.603L195.358 232.48L191.535 242.603H199.518Z" fill="black"/>
<defs>
<clipPath id="clip0_78_202">
<rect width="208" height="208" fill="white" transform="translate(1.5)"/>
</clipPath>
</defs>
</svg>
