<svg width="1146" height="210" viewBox="0 0 1146 210" fill="none" xmlns="http://www.w3.org/2000/svg">
<path d="M208.5 2H0.5V210H208.5V2Z" fill="white"/>
<path d="M4 206V6H204V206H4ZM0 210H208V2H0V210Z" fill="#054189"/>
<path d="M10 200L198 200L198 12L10 12L10 200Z" fill="white"/>
<path d="M10 196.13V121.01H86L10 196.13Z" fill="#054189"/>
<path d="M10 91.9407V33.9707L68.65 91.9407H10Z" fill="#054189"/>
<path d="M120 85L193.85 12H120V85Z" fill="#054189"/>
<path d="M90.0194 69L32.3594 12H90.0194V69Z" fill="#054189"/>
<path d="M99 106H10V116H99V106Z" fill="#FC0100"/>
<path d="M104 105V12H94V105H104Z" fill="#FC0100"/>
<path d="M10 25.08V12H24L102 90L94 98L88.46 103.54L10 25.08Z" fill="#FC0100"/>
<path d="M10 200L104 106H198V200H10Z" fill="#D52B1E"/>
<path d="M104 106L135.33 74.67L198 12V106H104Z" fill="white"/>
<path d="M72.6699 137.33L104 106L135.33 74.6699H198V137.33H72.6699Z" fill="#0039A6"/>
<path d="M10 200V194.34L192.34 12H198V17.66L15.66 200H10Z" fill="white"/>
<path d="M106.459 190L96.7491 155.89C93.7691 158.48 89.9691 159.75 86.7691 160.82L86.5191 160.9C82.9691 162.09 80.5991 163.74 79.6591 165.7C79.3591 166.32 79.2291 166.93 79.1791 167.47C84.0591 168.48 93.6491 171.18 99.2391 177.55L100.229 178.68V190H63.0391L53.1691 155.72L56.0991 154.22C60.2791 152.08 63.4891 148.29 64.9091 143.82C65.6991 141.24 66.3291 138.62 66.7691 135.97C59.1691 134.05 53.7991 127.1 53.9091 119.21C53.8691 115.24 55.3191 111.32 57.9891 108.26C59.8291 106.11 62.2991 104.56 65.0091 103.79V103.49L67.5091 103.32C67.7791 103.29 68.0491 103.28 68.3091 103.27L68.7591 103.24C71.3391 103.08 73.7591 101.83 75.3791 99.8198C77.2691 97.4898 78.3091 94.5798 78.3091 91.5998C78.3091 90.0498 75.9591 79.1898 66.4791 79.1898C64.1991 79.1898 60.5791 81.5198 60.5791 83.4498C60.5791 91.0698 54.3691 97.2698 46.7491 97.2698C46.5491 97.2698 46.3591 97.2698 46.1691 97.2598C42.0691 97.2298 32.7891 95.2798 32.7891 78.2998V65.7998L40.0491 75.9798C41.0991 77.4498 42.7291 78.3598 44.5291 78.4798C46.1691 78.4098 48.0291 76.4398 50.1691 74.1598C53.5991 70.5098 58.2891 65.5098 65.9691 65.5098C73.6491 65.5098 79.3491 68.5798 83.6391 72.8198C81.8491 67.1998 80.6491 62.3398 80.4491 56.5998C80.1991 48.5298 82.2491 40.5998 86.3491 33.6598C90.4291 26.6798 97.6991 22.3298 105.799 22.0298C106.139 22.0198 106.469 22.0098 106.809 22.0098C111.739 22.0098 116.599 23.3198 120.859 25.8098L120.139 28.0298C126.289 28.6798 128.479 30.1998 129.669 31.5598C130.459 32.4598 133.939 33.4198 138.839 33.4198H143.009V40.7898C143.279 41.5198 143.409 42.3498 143.409 43.2898C143.409 45.1098 142.549 46.9898 140.839 48.9098L141.639 48.5898L138.989 61.6898C142.719 61.3798 146.269 59.9198 149.139 57.4798C151.649 55.0698 153.669 52.2498 155.149 49.0998C156.959 45.2498 160.719 42.6398 164.959 42.2998H165.119L175.899 42.2898L173.789 54.9498L172.769 61.1398L170.829 72.8498L161.049 72.8798C158.839 72.9798 158.219 73.9198 156.569 77.7998C154.519 82.6098 151.439 89.8298 139.179 90.3198C139.799 91.6398 141.119 92.5198 142.639 92.5198H142.949C142.949 92.5198 143.339 92.5198 143.459 92.5198C145.789 92.5198 148.079 91.7498 149.929 90.3298C152.229 87.6398 155.549 86.0698 159.109 86.0098H168.669L166.739 97.7098L166.609 98.4698L164.669 110.19L163.659 116.29H153.619L152.769 115.86C149.839 114.37 146.549 113.52 143.269 113.39C139.399 113.52 135.589 114.24 131.939 115.53L131.279 115.76H130.989L126.269 117.6C124.869 118.15 123.499 118.76 122.179 119.43C124.389 120.61 127.509 122.51 130.619 125.16C138.379 131.77 142.489 139.95 142.489 148.8V151.41L140.099 152.46C135.909 154.31 125.839 160.27 123.459 167.75C128.649 168.98 137.569 171.83 142.509 177.58L143.479 178.7V190H106.459ZM101.809 144.47C101.599 148.79 100.299 151.88 98.4191 154.16L100.869 153.81C107.079 152.93 108.609 151.14 108.659 150.59C108.759 149.38 106.429 146.31 101.809 144.47ZM69.0591 118.88C68.9791 118.91 68.9191 118.95 68.8691 119.02C68.7991 119.11 68.7691 119.22 68.7791 119.33C68.7991 119.51 68.9291 119.66 69.1091 119.7L69.3991 119.77L71.2591 119.63C72.6291 119.53 74.6091 118.73 76.7891 117.29C74.3491 118.27 71.7391 118.82 69.0691 118.89L69.0591 118.88ZM127.579 50.4498C127.379 50.7898 127.329 51.2098 127.459 51.5898L127.499 51.7198L127.539 51.8498C127.659 52.3398 128.099 52.6798 128.599 52.6798C128.649 52.6798 128.699 52.6798 128.759 52.6698L128.949 52.6398H129.139C130.179 52.5898 131.199 52.4498 132.209 52.2098L132.109 49.1398C129.479 49.2998 128.009 49.9598 127.589 50.4398L127.579 50.4498Z" fill="white"/>
<path d="M92.3288 86.3192C87.8988 72.3692 84.7688 65.7292 84.4588 56.4492C84.2388 49.1592 86.0888 41.9592 89.8088 35.6792C93.1788 29.8992 99.2788 26.2492 105.969 26.0092C110.489 25.8492 114.959 26.9692 118.859 29.2492C116.699 29.0492 114.539 28.9492 112.369 28.9792C107.809 28.9792 103.389 29.2592 103.339 29.2592L102.819 29.2992V38.6592C99.7688 40.0092 87.1688 51.8192 100.209 86.3292H92.3388L92.3288 86.3192ZM104.199 86.3192C95.2488 65.1992 97.7288 49.0392 103.659 42.5092C105.219 44.3392 107.399 45.5192 109.789 45.8092C108.009 49.9492 107.129 54.4092 107.179 58.9192C107.229 63.6692 108.339 68.3492 110.449 72.6092C113.179 77.9392 117.029 82.6092 121.729 86.3192H104.199ZM127.719 86.3192C121.909 82.6792 117.229 77.4892 114.199 71.3392C111.179 65.1792 110.319 58.1792 111.749 51.4692C112.309 54.9392 113.829 58.1892 116.139 60.8392C118.479 63.1392 122.389 64.2592 128.089 64.2592C130.089 64.1392 132.029 64.9492 133.349 66.4492C136.709 70.3792 135.859 78.7092 135.349 83.6792C135.239 84.7392 135.159 85.6392 135.109 86.3292H127.719V86.3192ZM134.789 62.3892C133.499 61.3092 130.329 59.7392 122.739 59.7392C117.479 59.7392 115.929 53.6792 114.679 48.8092C113.769 45.2492 112.989 42.1692 110.859 42.1692C105.779 42.1692 105.689 38.2792 105.689 38.1092V31.9392C106.819 31.8692 109.689 31.6892 112.949 31.6892C120.389 31.6892 125.269 32.5692 126.669 34.1792C129.219 37.0992 136.039 37.4092 138.849 37.4092H139.019V39.2492C138.929 39.3292 138.829 39.3892 138.719 39.4392C138.229 39.6292 137.889 40.0792 137.839 40.6092C137.859 41.0392 138.159 41.4092 138.579 41.5192C138.979 41.6892 139.419 41.8792 139.419 43.2892C139.419 44.8292 137.459 46.8092 136.049 47.9892C136.029 47.2892 135.789 46.6192 135.379 46.0492C134.959 45.4692 134.289 45.1292 133.579 45.1092H133.279C130.749 45.1092 126.209 45.4992 124.289 48.1492C123.359 49.5292 123.119 51.2692 123.649 52.8492C124.299 55.3592 126.719 56.9892 129.289 56.6292C131.679 56.5292 134.039 56.0092 136.249 55.1092L134.779 62.3992L134.789 62.3892ZM117.379 35.5092C117.859 36.3292 119.519 39.0292 120.839 39.1992C121.039 39.2292 121.249 39.2392 121.459 39.2392C122.679 39.1992 123.869 38.8792 124.949 38.3292L125.479 38.0492L125.169 37.5092C124.659 36.5892 123.919 35.8192 123.019 35.2692C121.329 34.9192 119.609 34.6992 117.879 34.6292L116.819 34.5592L117.379 35.5092ZM68.2188 132.189C62.1388 130.889 57.8188 125.469 57.9088 119.249C57.8788 116.169 58.9788 113.189 60.9988 110.869C62.8788 108.679 65.5788 107.369 68.4688 107.249L69.0088 107.229V107.209C72.7188 106.979 76.1688 105.199 78.4988 102.309C80.9688 99.2792 82.3188 95.4892 82.3088 91.5692C82.3088 88.0192 78.5588 75.1692 66.4788 75.1692C62.5288 75.1692 56.5788 78.6992 56.5788 83.4292C56.5788 88.8592 52.1688 93.2492 46.7388 93.2492C46.5788 93.2492 46.4288 93.2492 46.2688 93.2392C40.6688 93.2392 36.7988 88.8392 36.7988 78.2792C38.5788 80.7692 41.3988 82.3092 44.4588 82.4592C51.9388 82.4592 55.1088 69.4792 65.9788 69.4792C81.2988 69.4792 88.2588 84.4292 88.2588 91.5692C88.3188 97.2792 86.5288 102.849 83.1788 107.459C79.7888 112.059 74.4288 114.799 68.7088 114.849C66.2788 115.119 64.5388 117.309 64.8088 119.739C65.0188 121.609 66.3888 123.139 68.2188 123.559V132.159V132.189ZM138.489 86.3192C138.919 83.3392 140.329 71.6892 137.349 65.7392C142.659 65.7892 147.819 63.9092 151.849 60.4392C154.739 57.6792 157.099 54.4092 158.789 50.7892C159.989 48.2292 162.469 46.5092 165.299 46.2792H171.199L170.579 49.9892H164.889L164.479 52.4592H170.169L169.559 56.1692H163.869L163.409 58.9292H169.099L168.489 62.6492H162.799L162.389 65.1192H168.079L167.459 68.8392L160.979 68.8592C155.959 69.0492 154.469 72.5292 152.909 76.2092C150.929 80.8492 148.699 86.0992 138.499 86.3092M154.589 112.289C151.079 110.509 147.229 109.519 143.289 109.379C138.959 109.509 134.689 110.309 130.609 111.749C122.339 111.689 110.309 101.249 105.599 89.9892H134.939C135.599 93.8692 139.039 96.6592 142.979 96.4992C146.539 96.6192 150.019 95.4392 152.769 93.1892C154.319 91.2092 156.679 90.0392 159.199 89.9992H163.979L163.369 93.6992H157.679L157.279 96.0792H162.969L162.359 99.7892H156.669L156.229 102.459H161.919L161.309 106.179H155.619L155.219 108.559H160.909L160.299 112.279H154.609L154.589 112.289ZM93.1288 185.999L91.4388 180.189H88.3088L89.9988 185.999H85.6988L84.0088 180.189H80.8688L82.5588 185.999H77.9688L76.2788 180.189H73.1388L74.8288 185.999H66.0388L57.9188 157.779C63.0688 155.139 66.9588 150.549 68.7188 145.029C70.8588 138.099 71.8088 130.859 71.5388 123.609C75.7288 123.299 81.4688 119.639 86.0088 114.299C91.7888 107.499 93.0788 98.8892 93.2088 89.9892H101.819C103.989 95.0992 106.859 99.8792 110.349 104.189C114.199 108.669 119.189 112.019 124.799 113.869C118.429 116.359 112.649 120.149 107.829 124.999C101.479 131.249 97.8288 137.889 97.8288 143.229C97.8288 153.029 91.6988 154.949 85.2388 157.109C71.8188 161.599 75.6688 170.919 75.6688 170.919C75.6688 170.919 89.5888 172.619 96.2188 180.179V185.989H93.1188L93.1288 185.999ZM136.349 185.999L134.659 180.189H131.519L133.209 185.999H128.909L127.219 180.189H124.089L125.779 185.999H121.189L119.499 180.189H116.359L118.049 185.999H109.479L101.439 157.779C119.649 155.209 112.679 143.719 101.829 140.229C105.129 132.609 110.599 126.139 117.569 121.639C117.569 121.639 138.489 130.099 138.489 148.809C138.489 148.809 118.939 157.379 118.939 170.929C118.939 170.929 133.389 173.129 139.469 180.189V185.999H136.339H136.349Z" fill="#435363"/>
<path d="M254.642 28V6.18182H262.014C263.726 6.18182 265.125 6.49077 266.212 7.10866C267.305 7.71946 268.115 8.54688 268.641 9.59091C269.166 10.6349 269.429 11.7997 269.429 13.0852C269.429 14.3707 269.166 15.5391 268.641 16.5902C268.122 17.6413 267.32 18.4794 266.233 19.1044C265.146 19.7223 263.754 20.0312 262.057 20.0312H256.773V17.6875H261.972C263.143 17.6875 264.085 17.4851 264.795 17.0803C265.505 16.6754 266.02 16.1286 266.339 15.4396C266.666 14.7436 266.83 13.9588 266.83 13.0852C266.83 12.2116 266.666 11.4304 266.339 10.7415C266.02 10.0526 265.501 9.51278 264.784 9.12216C264.067 8.72443 263.115 8.52557 261.929 8.52557H257.284V28H254.642ZM293.294 17.0909C293.294 19.392 292.879 21.3807 292.048 23.0568C291.217 24.733 290.077 26.0256 288.628 26.9347C287.179 27.8438 285.524 28.2983 283.663 28.2983C281.803 28.2983 280.148 27.8438 278.699 26.9347C277.25 26.0256 276.11 24.733 275.279 23.0568C274.448 21.3807 274.033 19.392 274.033 17.0909C274.033 14.7898 274.448 12.8011 275.279 11.125C276.11 9.44886 277.25 8.15625 278.699 7.24716C280.148 6.33807 281.803 5.88352 283.663 5.88352C285.524 5.88352 287.179 6.33807 288.628 7.24716C290.077 8.15625 291.217 9.44886 292.048 11.125C292.879 12.8011 293.294 14.7898 293.294 17.0909ZM290.737 17.0909C290.737 15.2017 290.421 13.6072 289.789 12.3075C289.164 11.0078 288.315 10.0241 287.243 9.35653C286.178 8.68892 284.984 8.35511 283.663 8.35511C282.342 8.35511 281.146 8.68892 280.073 9.35653C279.008 10.0241 278.159 11.0078 277.527 12.3075C276.902 13.6072 276.59 15.2017 276.59 17.0909C276.59 18.9801 276.902 20.5746 277.527 21.8743C278.159 23.174 279.008 24.1577 280.073 24.8253C281.146 25.4929 282.342 25.8267 283.663 25.8267C284.984 25.8267 286.178 25.4929 287.243 24.8253C288.315 24.1577 289.164 23.174 289.789 21.8743C290.421 20.5746 290.737 18.9801 290.737 17.0909ZM316.493 13H313.851C313.695 12.2401 313.422 11.5724 313.031 10.9972C312.648 10.4219 312.179 9.93892 311.625 9.5483C311.078 9.15057 310.471 8.85227 309.803 8.65341C309.135 8.45455 308.439 8.35511 307.715 8.35511C306.394 8.35511 305.197 8.68892 304.125 9.35653C303.059 10.0241 302.211 11.0078 301.579 12.3075C300.954 13.6072 300.641 15.2017 300.641 17.0909C300.641 18.9801 300.954 20.5746 301.579 21.8743C302.211 23.174 303.059 24.1577 304.125 24.8253C305.197 25.4929 306.394 25.8267 307.715 25.8267C308.439 25.8267 309.135 25.7273 309.803 25.5284C310.471 25.3295 311.078 25.0348 311.625 24.6442C312.179 24.2464 312.648 23.7599 313.031 23.1847C313.422 22.6023 313.695 21.9347 313.851 21.1818H316.493C316.295 22.2969 315.932 23.2947 315.407 24.1754C314.881 25.0561 314.228 25.8054 313.447 26.4233C312.665 27.0341 311.788 27.4993 310.815 27.8189C309.849 28.1385 308.816 28.2983 307.715 28.2983C305.854 28.2983 304.199 27.8438 302.75 26.9347C301.302 26.0256 300.162 24.733 299.331 23.0568C298.5 21.3807 298.084 19.392 298.084 17.0909C298.084 14.7898 298.5 12.8011 299.331 11.125C300.162 9.44886 301.302 8.15625 302.75 7.24716C304.199 6.33807 305.854 5.88352 307.715 5.88352C308.816 5.88352 309.849 6.04332 310.815 6.36293C311.788 6.68253 312.665 7.15128 313.447 7.76918C314.228 8.37997 314.881 9.12571 315.407 10.0064C315.932 10.88 316.295 11.8778 316.493 13ZM339.52 13H336.878C336.721 12.2401 336.448 11.5724 336.057 10.9972C335.674 10.4219 335.205 9.93892 334.651 9.5483C334.104 9.15057 333.497 8.85227 332.829 8.65341C332.162 8.45455 331.466 8.35511 330.741 8.35511C329.42 8.35511 328.223 8.68892 327.151 9.35653C326.086 10.0241 325.237 11.0078 324.605 12.3075C323.98 13.6072 323.667 15.2017 323.667 17.0909C323.667 18.9801 323.98 20.5746 324.605 21.8743C325.237 23.174 326.086 24.1577 327.151 24.8253C328.223 25.4929 329.42 25.8267 330.741 25.8267C331.466 25.8267 332.162 25.7273 332.829 25.5284C333.497 25.3295 334.104 25.0348 334.651 24.6442C335.205 24.2464 335.674 23.7599 336.057 23.1847C336.448 22.6023 336.721 21.9347 336.878 21.1818H339.52C339.321 22.2969 338.958 23.2947 338.433 24.1754C337.907 25.0561 337.254 25.8054 336.473 26.4233C335.691 27.0341 334.814 27.4993 333.841 27.8189C332.875 28.1385 331.842 28.2983 330.741 28.2983C328.88 28.2983 327.226 27.8438 325.777 26.9347C324.328 26.0256 323.188 24.733 322.357 23.0568C321.526 21.3807 321.11 19.392 321.11 17.0909C321.11 14.7898 321.526 12.8011 322.357 11.125C323.188 9.44886 324.328 8.15625 325.777 7.24716C327.226 6.33807 328.88 5.88352 330.741 5.88352C331.842 5.88352 332.875 6.04332 333.841 6.36293C334.814 6.68253 335.691 7.15128 336.473 7.76918C337.254 8.37997 337.907 9.12571 338.433 10.0064C338.958 10.88 339.321 11.8778 339.52 13ZM344.989 6.18182H347.588V23.3551H347.801L359.733 6.18182H362.29V28H359.648V10.8693H359.435L347.546 28H344.989V6.18182ZM368.777 6.18182H371.376V23.3551H371.589L383.521 6.18182H386.078V28H383.436V10.8693H383.223L371.334 28H368.777V6.18182ZM379.515 0.727272H381.859C381.859 1.87784 381.461 2.81889 380.666 3.55043C379.871 4.28196 378.791 4.64773 377.427 4.64773C376.085 4.64773 375.016 4.28196 374.221 3.55043C373.432 2.81889 373.038 1.87784 373.038 0.727272H375.382C375.382 1.28125 375.535 1.76776 375.84 2.18679C376.153 2.60582 376.682 2.81534 377.427 2.81534C378.173 2.81534 378.706 2.60582 379.025 2.18679C379.352 1.76776 379.515 1.28125 379.515 0.727272ZM410.122 13H407.479C407.323 12.2401 407.05 11.5724 406.659 10.9972C406.276 10.4219 405.807 9.93892 405.253 9.5483C404.706 9.15057 404.099 8.85227 403.431 8.65341C402.764 8.45455 402.068 8.35511 401.343 8.35511C400.022 8.35511 398.825 8.68892 397.753 9.35653C396.688 10.0241 395.839 11.0078 395.207 12.3075C394.582 13.6072 394.269 15.2017 394.269 17.0909C394.269 18.9801 394.582 20.5746 395.207 21.8743C395.839 23.174 396.688 24.1577 397.753 24.8253C398.825 25.4929 400.022 25.8267 401.343 25.8267C402.068 25.8267 402.764 25.7273 403.431 25.5284C404.099 25.3295 404.706 25.0348 405.253 24.6442C405.807 24.2464 406.276 23.7599 406.659 23.1847C407.05 22.6023 407.323 21.9347 407.479 21.1818H410.122C409.923 22.2969 409.56 23.2947 409.035 24.1754C408.509 25.0561 407.856 25.8054 407.075 26.4233C406.293 27.0341 405.416 27.4993 404.443 27.8189C403.477 28.1385 402.444 28.2983 401.343 28.2983C399.482 28.2983 397.827 27.8438 396.379 26.9347C394.93 26.0256 393.79 24.733 392.959 23.0568C392.128 21.3807 391.712 19.392 391.712 17.0909C391.712 14.7898 392.128 12.8011 392.959 11.125C393.79 9.44886 394.93 8.15625 396.379 7.24716C397.827 6.33807 399.482 5.88352 401.343 5.88352C402.444 5.88352 403.477 6.04332 404.443 6.36293C405.416 6.68253 406.293 7.15128 407.075 7.76918C407.856 8.37997 408.509 9.12571 409.035 10.0064C409.56 10.88 409.923 11.8778 410.122 13ZM428.418 28L420.918 17.9858H418.233V28H415.591V6.18182H418.233V15.642H419.383L428.119 6.18182H431.273L422.452 15.7699L431.571 28H428.418ZM453.569 17.0909C453.569 19.392 453.154 21.3807 452.323 23.0568C451.492 24.733 450.352 26.0256 448.903 26.9347C447.454 27.8438 445.799 28.2983 443.938 28.2983C442.078 28.2983 440.423 27.8438 438.974 26.9347C437.525 26.0256 436.385 24.733 435.554 23.0568C434.723 21.3807 434.308 19.392 434.308 17.0909C434.308 14.7898 434.723 12.8011 435.554 11.125C436.385 9.44886 437.525 8.15625 438.974 7.24716C440.423 6.33807 442.078 5.88352 443.938 5.88352C445.799 5.88352 447.454 6.33807 448.903 7.24716C450.352 8.15625 451.492 9.44886 452.323 11.125C453.154 12.8011 453.569 14.7898 453.569 17.0909ZM451.012 17.0909C451.012 15.2017 450.696 13.6072 450.064 12.3075C449.439 11.0078 448.59 10.0241 447.518 9.35653C446.453 8.68892 445.259 8.35511 443.938 8.35511C442.617 8.35511 441.421 8.68892 440.348 9.35653C439.283 10.0241 438.434 11.0078 437.802 12.3075C437.177 13.6072 436.865 15.2017 436.865 17.0909C436.865 18.9801 437.177 20.5746 437.802 21.8743C438.434 23.174 439.283 24.1577 440.348 24.8253C441.421 25.4929 442.617 25.8267 443.938 25.8267C445.259 25.8267 446.453 25.4929 447.518 24.8253C448.59 24.1577 449.439 23.174 450.064 21.8743C450.696 20.5746 451.012 18.9801 451.012 17.0909ZM468.246 15.919V18.2628H458.7V15.919H468.246ZM474.21 28V6.18182H487.378V8.52557H476.852V15.3438H482.392C483.955 15.3438 485.272 15.5994 486.345 16.1108C487.424 16.6222 488.241 17.343 488.795 18.2734C489.356 19.2038 489.637 20.3011 489.637 21.5653C489.637 22.8295 489.356 23.9446 488.795 24.9105C488.241 25.8764 487.424 26.6328 486.345 27.1797C485.272 27.7266 483.955 28 482.392 28H474.21ZM476.852 25.6989H482.392C483.387 25.6989 484.228 25.5 484.917 25.1023C485.613 24.6974 486.139 24.179 486.494 23.5469C486.856 22.9077 487.037 22.233 487.037 21.5227C487.037 20.4787 486.636 19.5803 485.833 18.8274C485.031 18.0675 483.884 17.6875 482.392 17.6875H476.852V25.6989ZM495.186 28V6.18182H502.558C504.27 6.18182 505.669 6.49077 506.755 7.10866C507.849 7.71946 508.659 8.54688 509.184 9.59091C509.71 10.6349 509.973 11.7997 509.973 13.0852C509.973 14.3707 509.71 15.5391 509.184 16.5902C508.666 17.6413 507.863 18.4794 506.777 19.1044C505.69 19.7223 504.298 20.0312 502.601 20.0312H497.316V17.6875H502.515C503.687 17.6875 504.628 17.4851 505.338 17.0803C506.049 16.6754 506.564 16.1286 506.883 15.4396C507.21 14.7436 507.373 13.9588 507.373 13.0852C507.373 12.2116 507.21 11.4304 506.883 10.7415C506.564 10.0526 506.045 9.51278 505.328 9.12216C504.611 8.72443 503.659 8.52557 502.473 8.52557H497.828V28H495.186ZM515.429 6.18182H518.028V23.3551H518.241L530.173 6.18182H532.73V28H530.088V10.8693H529.875L517.986 28H515.429V6.18182ZM538.023 8.52557V6.18182H554.387V8.52557H547.526V28H544.884V8.52557H538.023ZM558.011 28H555.241L563.252 6.18182H565.979L573.991 28H571.221L564.701 9.63352H564.531L558.011 28ZM559.033 19.4773H570.198V21.821H559.033V19.4773ZM578.589 28V6.18182H581.231V15.8977H592.865V6.18182H595.507V28H592.865V18.2415H581.231V28H578.589ZM619.553 13H616.911C616.755 12.2401 616.481 11.5724 616.091 10.9972C615.707 10.4219 615.239 9.93892 614.685 9.5483C614.138 9.15057 613.53 8.85227 612.863 8.65341C612.195 8.45455 611.499 8.35511 610.775 8.35511C609.454 8.35511 608.257 8.68892 607.185 9.35653C606.119 10.0241 605.271 11.0078 604.638 12.3075C604.013 13.6072 603.701 15.2017 603.701 17.0909C603.701 18.9801 604.013 20.5746 604.638 21.8743C605.271 23.174 606.119 24.1577 607.185 24.8253C608.257 25.4929 609.454 25.8267 610.775 25.8267C611.499 25.8267 612.195 25.7273 612.863 25.5284C613.53 25.3295 614.138 25.0348 614.685 24.6442C615.239 24.2464 615.707 23.7599 616.091 23.1847C616.481 22.6023 616.755 21.9347 616.911 21.1818H619.553C619.354 22.2969 618.992 23.2947 618.467 24.1754C617.941 25.0561 617.288 25.8054 616.506 26.4233C615.725 27.0341 614.848 27.4993 613.875 27.8189C612.909 28.1385 611.876 28.2983 610.775 28.2983C608.914 28.2983 607.259 27.8438 605.81 26.9347C604.361 26.0256 603.221 24.733 602.391 23.0568C601.56 21.3807 601.144 19.392 601.144 17.0909C601.144 14.7898 601.56 12.8011 602.391 11.125C603.221 9.44886 604.361 8.15625 605.81 7.24716C607.259 6.33807 608.914 5.88352 610.775 5.88352C611.876 5.88352 612.909 6.04332 613.875 6.36293C614.848 6.68253 615.725 7.15128 616.506 7.76918C617.288 8.37997 617.941 9.12571 618.467 10.0064C618.992 10.88 619.354 11.8778 619.553 13ZM637.849 28L630.349 17.9858H627.665V28H625.023V6.18182H627.665V15.642H628.815L637.551 6.18182H640.704L631.883 15.7699L641.003 28H637.849ZM646.512 28H643.742L651.753 6.18182H654.481L662.492 28H659.722L653.202 9.63352H653.032L646.512 28ZM647.535 19.4773H658.699V21.821H647.535V19.4773ZM681.92 28H679.278V8.52557H674.633C673.454 8.52557 672.506 8.70668 671.789 9.06889C671.071 9.42401 670.549 9.92827 670.223 10.5817C669.896 11.2351 669.733 11.9986 669.733 12.8722C669.733 13.7457 669.892 14.4986 670.212 15.1307C670.539 15.7557 671.057 16.2386 671.767 16.5795C672.485 16.9205 673.426 17.0909 674.59 17.0909H680.471V19.4773H674.505C672.815 19.4773 671.426 19.1967 670.34 18.6357C669.253 18.0675 668.447 17.2862 667.921 16.2919C667.396 15.2976 667.133 14.1577 667.133 12.8722C667.133 11.5866 667.396 10.4396 667.921 9.43111C668.447 8.42258 669.257 7.63068 670.35 7.0554C671.444 6.47301 672.843 6.18182 674.548 6.18182H681.92V28ZM671.65 18.1989H674.633L669.349 28H666.281L671.65 18.1989ZM710.882 28L703.382 17.9858H700.697V28H698.055V6.18182H700.697V15.642H701.848L710.583 6.18182H713.737L704.916 15.7699L714.035 28H710.882ZM719.8 28.2983V25.8267H721.164C721.689 25.8267 722.13 25.7237 722.485 25.5178C722.847 25.3118 723.145 25.0455 723.38 24.7188C723.621 24.392 723.82 24.0511 723.976 23.696L724.317 22.8864L716.774 6.18182H719.63L725.638 19.733L731.135 6.18182H733.948L726.405 24.4631C726.107 25.1449 725.766 25.777 725.382 26.3594C725.006 26.9418 724.491 27.4105 723.838 27.7656C723.191 28.1207 722.314 28.2983 721.206 28.2983H719.8ZM736.695 28V25.571H737.334C738.243 25.571 738.95 25.2798 739.454 24.6974C739.959 24.1151 740.321 23.174 740.541 21.8743C740.768 20.5746 740.921 18.8523 740.999 16.7074L741.383 6.18182H754.678V28H752.036V8.52557H743.897L743.556 17.2188C743.471 19.5057 743.261 21.4517 742.927 23.0568C742.594 24.6619 742.008 25.8871 741.17 26.7322C740.332 27.5774 739.11 28 737.505 28H736.695ZM763.117 15.3438H769.339C770.901 15.3438 772.219 15.5994 773.291 16.1108C774.371 16.6222 775.187 17.343 775.741 18.2734C776.302 19.2038 776.583 20.3011 776.583 21.5653C776.583 22.8295 776.302 23.9446 775.741 24.9105C775.187 25.8764 774.371 26.6328 773.291 27.1797C772.219 27.7266 770.901 28 769.339 28H761.157V6.18182H763.799V25.6989H769.339C770.333 25.6989 771.175 25.5 771.864 25.1023C772.56 24.6974 773.085 24.179 773.44 23.5469C773.802 22.9077 773.984 22.233 773.984 21.5227C773.984 20.4787 773.582 19.5803 772.78 18.8274C771.977 18.0675 770.83 17.6875 769.339 17.6875H763.117V15.3438ZM779.562 8.52557V6.18182H795.926V8.52557H789.065V28H786.423V8.52557H779.562ZM802.354 28.2983V25.8267H803.718C804.243 25.8267 804.683 25.7237 805.039 25.5178C805.401 25.3118 805.699 25.0455 805.933 24.7188C806.175 24.392 806.374 24.0511 806.53 23.696L806.871 22.8864L799.328 6.18182H802.183L808.192 19.733L813.689 6.18182H816.502L808.959 24.4631C808.661 25.1449 808.32 25.777 807.936 26.3594C807.56 26.9418 807.045 27.4105 806.392 27.7656C805.745 28.1207 804.868 28.2983 803.76 28.2983H802.354ZM821.124 28V6.18182H828.496C830.208 6.18182 831.607 6.49077 832.694 7.10866C833.787 7.71946 834.597 8.54688 835.123 9.59091C835.648 10.6349 835.911 11.7997 835.911 13.0852C835.911 14.3707 835.648 15.5391 835.123 16.5902C834.604 17.6413 833.802 18.4794 832.715 19.1044C831.628 19.7223 830.236 20.0312 828.539 20.0312H823.255V17.6875H828.454C829.626 17.6875 830.567 17.4851 831.277 17.0803C831.987 16.6754 832.502 16.1286 832.822 15.4396C833.148 14.7436 833.312 13.9588 833.312 13.0852C833.312 12.2116 833.148 11.4304 832.822 10.7415C832.502 10.0526 831.983 9.51278 831.266 9.12216C830.549 8.72443 829.597 8.52557 828.411 8.52557H823.766V28H821.124ZM841.367 28V6.18182H844.009V15.8977H855.643V6.18182H858.285V28H855.643V18.2415H844.009V28H841.367ZM865.669 28H862.899L870.91 6.18182H873.638L881.649 28H878.879L872.359 9.63352H872.189L865.669 28ZM866.692 19.4773H877.856V21.821H866.692V19.4773ZM901.077 28H898.435V8.52557H893.79C892.611 8.52557 891.663 8.70668 890.946 9.06889C890.228 9.42401 889.706 9.92827 889.38 10.5817C889.053 11.2351 888.89 11.9986 888.89 12.8722C888.89 13.7457 889.049 14.4986 889.369 15.1307C889.696 15.7557 890.214 16.2386 890.924 16.5795C891.642 16.9205 892.583 17.0909 893.748 17.0909H899.628V19.4773H893.662C891.972 19.4773 890.583 19.1967 889.497 18.6357C888.41 18.0675 887.604 17.2862 887.078 16.2919C886.553 15.2976 886.29 14.1577 886.29 12.8722C886.29 11.5866 886.553 10.4396 887.078 9.43111C887.604 8.42258 888.414 7.63068 889.507 7.0554C890.601 6.47301 892 6.18182 893.705 6.18182H901.077V28ZM890.807 18.1989H893.79L888.506 28H885.438L890.807 18.1989ZM918.107 28H915.337L923.348 6.18182H926.076L934.087 28H931.317L924.797 9.63352H924.627L918.107 28ZM919.13 19.4773H930.294V21.821H919.13V19.4773ZM955.217 13H952.575C952.419 12.2401 952.145 11.5724 951.754 10.9972C951.371 10.4219 950.902 9.93892 950.348 9.5483C949.801 9.15057 949.194 8.85227 948.526 8.65341C947.859 8.45455 947.163 8.35511 946.438 8.35511C945.117 8.35511 943.921 8.68892 942.848 9.35653C941.783 10.0241 940.934 11.0078 940.302 12.3075C939.677 13.6072 939.365 15.2017 939.365 17.0909C939.365 18.9801 939.677 20.5746 940.302 21.8743C940.934 23.174 941.783 24.1577 942.848 24.8253C943.921 25.4929 945.117 25.8267 946.438 25.8267C947.163 25.8267 947.859 25.7273 948.526 25.5284C949.194 25.3295 949.801 25.0348 950.348 24.6442C950.902 24.2464 951.371 23.7599 951.754 23.1847C952.145 22.6023 952.419 21.9347 952.575 21.1818H955.217C955.018 22.2969 954.656 23.2947 954.13 24.1754C953.605 25.0561 952.951 25.8054 952.17 26.4233C951.389 27.0341 950.512 27.4993 949.539 27.8189C948.573 28.1385 947.539 28.2983 946.438 28.2983C944.578 28.2983 942.923 27.8438 941.474 26.9347C940.025 26.0256 938.885 24.733 938.054 23.0568C937.223 21.3807 936.808 19.392 936.808 17.0909C936.808 14.7898 937.223 12.8011 938.054 11.125C938.885 9.44886 940.025 8.15625 941.474 7.24716C942.923 6.33807 944.578 5.88352 946.438 5.88352C947.539 5.88352 948.573 6.04332 949.539 6.36293C950.512 6.68253 951.389 7.15128 952.17 7.76918C952.951 8.37997 953.605 9.12571 954.13 10.0064C954.656 10.88 955.018 11.8778 955.217 13ZM978.243 13H975.601C975.445 12.2401 975.171 11.5724 974.781 10.9972C974.397 10.4219 973.928 9.93892 973.374 9.5483C972.828 9.15057 972.22 8.85227 971.553 8.65341C970.885 8.45455 970.189 8.35511 969.465 8.35511C968.144 8.35511 966.947 8.68892 965.874 9.35653C964.809 10.0241 963.96 11.0078 963.328 12.3075C962.703 13.6072 962.391 15.2017 962.391 17.0909C962.391 18.9801 962.703 20.5746 963.328 21.8743C963.96 23.174 964.809 24.1577 965.874 24.8253C966.947 25.4929 968.144 25.8267 969.465 25.8267C970.189 25.8267 970.885 25.7273 971.553 25.5284C972.22 25.3295 972.828 25.0348 973.374 24.6442C973.928 24.2464 974.397 23.7599 974.781 23.1847C975.171 22.6023 975.445 21.9347 975.601 21.1818H978.243C978.044 22.2969 977.682 23.2947 977.156 24.1754C976.631 25.0561 975.977 25.8054 975.196 26.4233C974.415 27.0341 973.538 27.4993 972.565 27.8189C971.599 28.1385 970.565 28.2983 969.465 28.2983C967.604 28.2983 965.949 27.8438 964.5 26.9347C963.051 26.0256 961.911 24.733 961.08 23.0568C960.249 21.3807 959.834 19.392 959.834 17.0909C959.834 14.7898 960.249 12.8011 961.08 11.125C961.911 9.44886 963.051 8.15625 964.5 7.24716C965.949 6.33807 967.604 5.88352 969.465 5.88352C970.565 5.88352 971.599 6.04332 972.565 6.36293C973.538 6.68253 974.415 7.15128 975.196 7.76918C975.977 8.37997 976.631 9.12571 977.156 10.0064C977.682 10.88 978.044 11.8778 978.243 13ZM1002.12 17.0909C1002.12 19.392 1001.71 21.3807 1000.88 23.0568C1000.04 24.733 998.904 26.0256 997.455 26.9347C996.006 27.8438 994.352 28.2983 992.491 28.2983C990.63 28.2983 988.975 27.8438 987.526 26.9347C986.077 26.0256 984.938 24.733 984.107 23.0568C983.276 21.3807 982.86 19.392 982.86 17.0909C982.86 14.7898 983.276 12.8011 984.107 11.125C984.938 9.44886 986.077 8.15625 987.526 7.24716C988.975 6.33807 990.63 5.88352 992.491 5.88352C994.352 5.88352 996.006 6.33807 997.455 7.24716C998.904 8.15625 1000.04 9.44886 1000.88 11.125C1001.71 12.8011 1002.12 14.7898 1002.12 17.0909ZM999.565 17.0909C999.565 15.2017 999.249 13.6072 998.616 12.3075C997.991 11.0078 997.143 10.0241 996.07 9.35653C995.005 8.68892 993.812 8.35511 992.491 8.35511C991.17 8.35511 989.973 8.68892 988.901 9.35653C987.835 10.0241 986.987 11.0078 986.354 12.3075C985.729 13.6072 985.417 15.2017 985.417 17.0909C985.417 18.9801 985.729 20.5746 986.354 21.8743C986.987 23.174 987.835 24.1577 988.901 24.8253C989.973 25.4929 991.17 25.8267 992.491 25.8267C993.812 25.8267 995.005 25.4929 996.07 24.8253C997.143 24.1577 997.991 23.174 998.616 21.8743C999.249 20.5746 999.565 18.9801 999.565 17.0909ZM1026.3 25.4858L1026 33.1562H1023.28V28H1021.74V25.4858H1026.3ZM1007.76 28V6.18182H1010.28V25.571H1021.53V6.18182H1024.04V28H1007.76ZM1031.49 6.18182H1034.09V23.3551H1034.31L1046.24 6.18182H1048.79V28H1046.15V10.8693H1045.94L1034.05 28H1031.49V6.18182ZM1056.18 28H1053.41L1061.42 6.18182H1064.14L1072.16 28H1069.39L1062.87 9.63352H1062.7L1056.18 28ZM1057.2 19.4773H1068.36V21.821H1057.2V19.4773ZM1095.29 25.4858L1094.99 33.1562H1092.27V28H1090.73V25.4858H1095.29ZM1076.75 28V6.18182H1079.27V25.571H1090.52V6.18182H1093.03V28H1076.75ZM1100.48 6.18182H1103.08V23.3551H1103.3L1115.23 6.18182H1117.78V28H1115.14V10.8693H1114.93L1103.04 28H1100.48V6.18182ZM1139.1 28H1136.46V8.52557H1131.81C1130.64 8.52557 1129.69 8.70668 1128.97 9.06889C1128.25 9.42401 1127.73 9.92827 1127.4 10.5817C1127.08 11.2351 1126.91 11.9986 1126.91 12.8722C1126.91 13.7457 1127.07 14.4986 1127.39 15.1307C1127.72 15.7557 1128.24 16.2386 1128.95 16.5795C1129.67 16.9205 1130.61 17.0909 1131.77 17.0909H1137.65V19.4773H1131.69C1130 19.4773 1128.61 19.1967 1127.52 18.6357C1126.43 18.0675 1125.63 17.2862 1125.1 16.2919C1124.58 15.2976 1124.31 14.1577 1124.31 12.8722C1124.31 11.5866 1124.58 10.4396 1125.1 9.43111C1125.63 8.42258 1126.44 7.63068 1127.53 7.0554C1128.63 6.47301 1130.02 6.18182 1131.73 6.18182H1139.1V28ZM1128.83 18.1989H1131.81L1126.53 28H1123.46L1128.83 18.1989Z" fill="black"/>
<rect x="248.5" y="51" width="897" height="4" fill="#FC0100"/>
<path d="M255.43 187.011H266.304L266.368 99.123H255.43V94.1338H303.66C313.681 94.1338 321.122 96.4365 325.983 101.042C330.887 105.605 333.339 111.49 333.339 118.696C333.339 127.097 329.459 133.302 321.698 137.31C319.395 138.504 316.964 139.442 314.406 140.125C322.636 141.105 328.926 143.749 333.275 148.056C337.625 152.363 339.8 157.651 339.8 163.919C339.8 172.533 336.644 179.378 330.333 184.452C324.064 189.484 315.088 192 303.404 192H255.43V187.011ZM299.246 138.781C308.5 138.781 314.022 134.815 315.813 126.884C316.367 124.496 316.645 121.937 316.645 119.208C316.645 112.726 315.6 108.035 313.51 105.136C310.696 101.127 305.365 99.123 297.519 99.123H283.575V138.781H299.246ZM298.415 187.011C306.176 187.011 312.103 185.156 316.197 181.446C320.333 177.736 322.401 172.469 322.401 165.646C322.401 155.625 318.414 148.93 310.44 145.562C307.54 144.325 304.001 143.707 299.822 143.707H283.575V187.011H298.415ZM397.685 94.1338C422.205 94.1338 434.465 102.364 434.465 118.824C434.465 126.287 432.205 132.236 427.685 136.67C423.165 141.105 417.109 143.941 409.519 145.178C419.54 146.841 426.406 152.001 430.116 160.657C431.608 164.154 432.909 168.013 434.017 172.235C435.169 176.414 436.192 179.378 437.088 181.126C439.049 185.049 441.949 187.011 445.787 187.011H448.346L448.474 192.32H439.455C431.096 192.32 425.468 191.19 422.568 188.93C419.625 186.627 417.387 182.085 415.851 175.305C414.444 169.122 413.293 164.9 412.397 162.64C410.521 157.779 408.09 153.962 405.105 151.19C402.12 148.419 398.261 147.033 393.528 147.033H381.822V187.011H396.79V192H354.253V187.011H364.552L364.616 99.123H354.253V94.1338H397.685ZM396.534 142.619C404.295 142.619 409.753 140.125 412.909 135.135C415.212 131.511 416.363 126.372 416.363 119.72C416.363 113.067 415.02 108.163 412.333 105.008C409.007 101.085 403.357 99.123 395.383 99.123H381.822V142.619H396.534ZM456.211 187.011H468.812L468.876 99.123H456.211V94.1338H498.683V99.123H486.082V187.011H498.683V192H456.211V187.011ZM535.077 187.011H547.806L547.87 99.0591H535.972C528.936 99.5282 524.032 102.129 521.26 106.863C519.128 110.487 517.87 116.5 517.486 124.901H512.497V94.1338H600.385V124.901H595.396C595.012 116.585 593.733 110.573 591.558 106.863C588.786 102.129 583.903 99.5282 576.91 99.0591H565.076V187.011H577.869V192H535.077V187.011ZM609.593 187.011H616.502L652.578 94.1338H659.998L698.568 187.011H705.093V192H670.232V187.011H679.827L670.616 164.687H631.789L623.346 187.011H634.859V192H609.593V187.011ZM668.569 159.698L650.403 115.498L633.708 159.698H668.569ZM715.069 187.011H727.67L727.734 99.123H715.069V94.1338H757.541V99.123H744.94V187.011H757.541V192H715.069V187.011ZM772.187 187.011H783.317V99.123H772.187V94.1338H801.163L852.974 171.211V99.123H840.565V94.1338H870.948V99.123H859.243V192H847.345L789.585 107.119V187.011H802.57V192H772.187V187.011ZM884.187 187.011H896.788L896.852 99.123H884.187V94.1338H926.659V99.123H914.058V187.011H926.659V192H884.187V187.011ZM944.375 187.011H956.528L956.592 99.123H944.375V94.1338H986.912V99.123H973.799V143.707L1018.7 99.123H1009.17V94.1338H1037.76V99.123H1026.57L991.517 133.92L1034.89 187.011H1043.97V192H1003.67V187.011H1013.07L980.131 145.178L973.799 151.446V187.011H986.912V192H944.375V187.011ZM1048.57 187.011H1055.48L1091.56 94.1338H1098.98L1137.55 187.011H1144.07V192H1109.21V187.011H1118.8L1109.59 164.687H1070.77L1062.32 187.011H1073.84V192H1048.57V187.011ZM1107.55 159.698L1089.38 115.498L1072.69 159.698H1107.55Z" fill="black"/>
</svg>
